{"asset":{"version":"2.0","generator":"THREE.GLTFExporter"},"scenes":[{"nodes":[0]}],"scene":0,"nodes":[{"matrix":[1.1920930231834637e-10,-8.940696785697516e-11,-0.0010000000176951203,0,0.001000000017695124,1.4210855390181384e-17,1.490116154634345e-10,0,-2.9802316697801974e-11,0.001000000017695131,-1.1920928810749098e-10,0,0,0,0,1],"name":"室内-可动门木制门框","extras":{"name":"室内-可动门木制门框"},"mesh":0}],"bufferViews":[{"buffer":0,"byteOffset":0,"byteLength":5040,"target":34962,"byteStride":12},{"buffer":0,"byteOffset":5040,"byteLength":5040,"target":34962,"byteStride":12},{"buffer":0,"byteOffset":10080,"byteLength":3360,"target":34962,"byteStride":8},{"buffer":0,"byteOffset":13440,"byteLength":1152,"target":34963}],"buffers":[{"byteLength":14592,"uri":"data:application/octet-stream;base64,"}],"accessors":[{"bufferView":0,"componentType":5126,"count":420,"max":[13766.119140625,5858.26318359375,10693.7216796875],"min":[-10753.0078125,-12951.501953125,356.6763916015625],"type":"VEC3"},{"bufferView":1,"componentType":5126,"count":420,"max":[1,1,1],"min":[-1,-1,-1],"type":"VEC3"},{"bufferView":2,"componentType":5126,"count":420,"max":[0.9413067102432251,0.9989989995956421],"min":[0.0010010009864345193,0.02957242727279663],"type":"VEC2"},{"bufferView":3,"componentType":5123,"count":576,"max":[419],"min":[0],"type":"SCALAR"}],"materials":[{"pbrMetallicRoughness":{"baseColorFactor":[0.9411764705882353,0.9411764705882353,0.7843137254901961,1],"metallicFactor":0,"roughnessFactor":0.9},"extensions":{"KHR_materials_unlit":{}}}],"meshes":[{"primitives":[{"mode":4,"attributes":{"POSITION":0,"NORMAL":1,"TEXCOORD_0":2},"indices":3,"material":0}]}],"extensionsUsed":["KHR_materials_unlit"]}