{"asset":{"version":"2.0","generator":"THREE.GLTFExporter"},"scenes":[{"nodes":[0]}],"scene":0,"nodes":[{"matrix":[0.0010000000474974513,-8.742280204211802e-11,0,0,8.742280204211802e-11,0.0010000000474974513,0,0,0,0,-0.0010000000474974513,0,16.051143646240234,8.100001335144043,8.336251258850098,1],"name":"二层内部墙体","extras":{"name":"二层内部墙体"},"mesh":0}],"bufferViews":[{"buffer":0,"byteOffset":0,"byteLength":8316,"target":34962,"byteStride":12},{"buffer":0,"byteOffset":8316,"byteLength":8316,"target":34962,"byteStride":12},{"buffer":0,"byteOffset":16632,"byteLength":5544,"target":34962,"byteStride":8},{"buffer":0,"byteOffset":22176,"byteLength":5544,"target":34962,"byteStride":8},{"buffer":0,"byteOffset":27720,"byteLength":2372,"target":34963}],"buffers":[{"byteLength":30092,"uri":"data:application/octet-stream;base64,"}],"accessors":[{"bufferView":0,"componentType":5126,"count":693,"max":[18857.85546875,11259.4990234375,22036.25],"min":[-41042.14453125,0,-7913.74951171875],"type":"VEC3"},{"bufferView":1,"componentType":5126,"count":693,"max":[1,1,1],"min":[-1,-1,-1],"type":"VEC3"},{"bufferView":2,"componentType":5126,"count":693,"max":[20.4666690826416,10.483333587646484],"min":[-19.4666690826416,-9.483331680297852],"type":"VEC2"},{"bufferView":3,"componentType":5126,"count":693,"max":[0.9995005130767822,0.9995004534721375],"min":[0.0004994869232177734,0.0004995465278625488],"type":"VEC2"},{"bufferView":4,"componentType":5123,"count":1185,"max":[692],"min":[0],"type":"SCALAR"}],"materials":[{"pbrMetallicRoughness":{"baseColorFactor":[0.9411764705882353,0.9411764705882353,0.7843137254901961,1],"metallicFactor":0,"roughnessFactor":0.9},"extensions":{"KHR_materials_unlit":{}}}],"meshes":[{"primitives":[{"mode":4,"attributes":{"POSITION":0,"NORMAL":1,"TEXCOORD_0":2,"TEXCOORD_1":3},"indices":4,"material":0}]}],"extensionsUsed":["KHR_materials_unlit"]}