{"asset":{"version":"2.0","generator":"THREE.GLTFExporter"},"scenes":[{"nodes":[0]}],"scene":0,"nodes":[{"matrix":[0.0010000000474974513,0,0,0,0,0.0010000000474974513,0,0,0,0,0.0010000000474974513,0,0,0,0,1],"name":"室内-顶棚","extras":{"name":"室内-顶棚"},"mesh":0}],"bufferViews":[{"buffer":0,"byteOffset":0,"byteLength":8208,"target":34962,"byteStride":12},{"buffer":0,"byteOffset":8208,"byteLength":8208,"target":34962,"byteStride":12},{"buffer":0,"byteOffset":16416,"byteLength":5472,"target":34962,"byteStride":8},{"buffer":0,"byteOffset":21888,"byteLength":1836,"target":34963}],"buffers":[{"byteLength":23724,"uri":"data:application/octet-stream;base64,"}],"accessors":[{"bufferView":0,"componentType":5126,"count":684,"max":[16557.998046875,17480.126953125,9900.001953125],"min":[-15040.05859375,13328.1748046875,-12900.0009765625],"type":"VEC3"},{"bufferView":1,"componentType":5126,"count":684,"max":[1,1,1],"min":[-1,-1,-1],"type":"VEC3"},{"bufferView":2,"componentType":5126,"count":684,"max":[0.9989989995956421,0.9989989995956421],"min":[0.0010010009864345193,0.0010010004043579102],"type":"VEC2"},{"bufferView":3,"componentType":5123,"count":918,"max":[683],"min":[0],"type":"SCALAR"}],"materials":[{"pbrMetallicRoughness":{"baseColorFactor":[0.5686274509803921,0.5333333333333333,0.5215686274509804,1],"metallicFactor":0,"roughnessFactor":0.9},"extensions":{"KHR_materials_unlit":{}}}],"meshes":[{"primitives":[{"mode":4,"attributes":{"POSITION":0,"NORMAL":1,"TEXCOORD_0":2},"indices":3,"material":0}]}],"extensionsUsed":["KHR_materials_unlit"]}