{"asset":{"version":"2.0","generator":"THREE.GLTFExporter"},"scenes":[{"nodes":[0]}],"scene":0,"nodes":[{"matrix":[0.0010000000474974513,-8.742271677698568e-11,0,0,8.742271677698568e-11,0.0010000000474974513,0,0,0,0,-0.0010000000474974513,0,-12.181999206542969,0,5.900000095367432,1],"name":"一层墙体","extras":{"name":"一层墙体"},"mesh":0}],"bufferViews":[{"buffer":0,"byteOffset":0,"byteLength":85884,"target":34962,"byteStride":12},{"buffer":0,"byteOffset":85884,"byteLength":85884,"target":34962,"byteStride":12},{"buffer":0,"byteOffset":171768,"byteLength":57256,"target":34962,"byteStride":8},{"buffer":0,"byteOffset":229024,"byteLength":23420,"target":34963}],"buffers":[{"byteLength":252444,"uri":"data:application/octet-stream;base64,"}],"accessors":[{"bufferView":0,"componentType":5126,"count":7157,"max":[47692,8100.00439453125,25750.013671875],"min":[-13409.0078125,-0.008390418253839016,-10950.5009765625],"type":"VEC3"},{"bufferView":1,"componentType":5126,"count":7157,"max":[1,1,1],"min":[-1,-1,-1],"type":"VEC3"},{"bufferView":2,"componentType":5126,"count":7157,"max":[20.86700439453125,12.733505249023438],"min":[-19.86700439453125,-11.733504295349121],"type":"VEC2"},{"bufferView":3,"componentType":5123,"count":11709,"max":[7156],"min":[0],"type":"SCALAR"}],"materials":[{"pbrMetallicRoughness":{"baseColorFactor":[0.9411764705882353,0.9411764705882353,0.7843137254901961,1],"metallicFactor":0,"roughnessFactor":0.9},"extensions":{"KHR_materials_unlit":{}}}],"meshes":[{"primitives":[{"mode":4,"attributes":{"POSITION":0,"NORMAL":1,"TEXCOORD_0":2},"indices":3,"material":0}]}],"extensionsUsed":["KHR_materials_unlit"]}