{"asset":{"version":"2.0","generator":"THREE.GLTFExporter"},"scenes":[{"nodes":[0]}],"scene":0,"nodes":[{"matrix":[0.0010000000474974513,0,0,0,0,-1.3435886286675388e-10,0.0010000000132689008,0,0,-0.0010000000132689008,-1.3435886286675388e-10,0,0,0,0,1],"name":"室内-地面","extras":{"name":"室内-地面"},"mesh":0}],"bufferViews":[{"buffer":0,"byteOffset":0,"byteLength":19260,"target":34962,"byteStride":12},{"buffer":0,"byteOffset":19260,"byteLength":19260,"target":34962,"byteStride":12},{"buffer":0,"byteOffset":38520,"byteLength":12840,"target":34962,"byteStride":8},{"buffer":0,"byteOffset":51360,"byteLength":4148,"target":34963}],"buffers":[{"byteLength":55508,"uri":"data:application/octet-stream;base64,"}],"accessors":[{"bufferView":0,"componentType":5126,"count":1605,"max":[35209,16549,-0.0016937255859375],"min":[-15640.498046875,-16450.5,-15459.5],"type":"VEC3"},{"bufferView":1,"componentType":5126,"count":1605,"max":[1,1,1],"min":[-1,-1,-1],"type":"VEC3"},{"bufferView":2,"componentType":5126,"count":1605,"max":[0.9989989995956421,0.9989989995956421],"min":[0.0010010009864345193,0.0010010004043579102],"type":"VEC2"},{"bufferView":3,"componentType":5123,"count":2073,"max":[1604],"min":[0],"type":"SCALAR"}],"materials":[{"pbrMetallicRoughness":{"baseColorFactor":[0.9411764705882353,0.9411764705882353,0.7843137254901961,1],"metallicFactor":0,"roughnessFactor":0.9},"extensions":{"KHR_materials_unlit":{}}}],"meshes":[{"primitives":[{"mode":4,"attributes":{"POSITION":0,"NORMAL":1,"TEXCOORD_0":2},"indices":3,"material":0}]}],"extensionsUsed":["KHR_materials_unlit"]}