{"asset":{"version":"2.0","generator":"THREE.GLTFExporter"},"scenes":[{"nodes":[0]}],"scene":0,"nodes":[{"name":"网格.053_1","mesh":0}],"bufferViews":[{"buffer":0,"byteOffset":0,"byteLength":95592,"target":34962,"byteStride":12},{"buffer":0,"byteOffset":95592,"byteLength":95592,"target":34962,"byteStride":12},{"buffer":0,"byteOffset":191184,"byteLength":63728,"target":34962,"byteStride":8},{"buffer":0,"byteOffset":254912,"byteLength":43056,"target":34963}],"buffers":[{"byteLength":297968,"uri":"data:application/octet-stream;base64,"}],"accessors":[{"bufferView":0,"componentType":5126,"count":7966,"max":[7607.306640625,435.2599792480469,-7723.8193359375],"min":[-4065.6435546875,415.2599792480469,-8467.01953125],"type":"VEC3"},{"bufferView":1,"componentType":5126,"count":7966,"max":[1,1,1],"min":[-1,-1,-1],"type":"VEC3"},{"bufferView":2,"componentType":5126,"count":7966,"max":[0,1],"min":[0,1],"type":"VEC2"},{"bufferView":3,"componentType":5123,"count":21528,"max":[7965],"min":[0],"type":"SCALAR"}],"materials":[{"pbrMetallicRoughness":{"baseColorFactor":[0.800000011920929,0.800000011920929,0.800000011920929,1],"metallicFactor":0,"roughnessFactor":1},"emissiveFactor":[0.799102783203125,0.799102783203125,0.799102783203125],"doubleSided":true,"name":"01 - Default"}],"meshes":[{"primitives":[{"mode":4,"attributes":{"POSITION":0,"NORMAL":1,"TEXCOORD_0":2},"indices":3,"material":0}]}]}