{"asset":{"version":"2.0","generator":"THREE.GLTFExporter"},"scenes":[{"nodes":[0]}],"scene":0,"nodes":[{"matrix":[-0.0008485288257602684,8.26415856098483e-10,0.0008485275085375336,0,0.0007166874959227911,-7.021629651005544e-10,0.0007166885653455745,0,-1.1360903676160958e-9,-0.001199999889508676,-1.843519805455672e-11,0,0,0,0,1],"name":"室内-讲台","extras":{"name":"室内-讲台"},"mesh":0}],"bufferViews":[{"buffer":0,"byteOffset":0,"byteLength":75864,"target":34962,"byteStride":12},{"buffer":0,"byteOffset":75864,"byteLength":75864,"target":34962,"byteStride":12},{"buffer":0,"byteOffset":151728,"byteLength":50576,"target":34962,"byteStride":8},{"buffer":0,"byteOffset":202304,"byteLength":15324,"target":34963}],"buffers":[{"byteLength":217628,"uri":"data:application/octet-stream;base64,"}],"accessors":[{"bufferView":0,"componentType":5126,"count":6322,"max":[-14266.2724609375,9601.857421875,-713.0867309570312],"min":[-15758.6484375,7834.21826171875,-1661.382080078125],"type":"VEC3"},{"bufferView":1,"componentType":5126,"count":6322,"max":[1,0.9997462034225464,1],"min":[-0.9980639815330505,-0.999979555606842,-1],"type":"VEC3"},{"bufferView":2,"componentType":5126,"count":6322,"max":[0.9989989995956421,0.9989989995956421],"min":[0.0010010009864345193,0.0010010004043579102],"type":"VEC2"},{"bufferView":3,"componentType":5123,"count":7662,"max":[6321],"min":[0],"type":"SCALAR"}],"materials":[{"pbrMetallicRoughness":{"baseColorFactor":[0.14901960784313725,0.09019607843137255,0.08235294117647059,1],"metallicFactor":0,"roughnessFactor":0.9},"extensions":{"KHR_materials_unlit":{}}}],"meshes":[{"primitives":[{"mode":4,"attributes":{"POSITION":0,"NORMAL":1,"TEXCOORD_0":2},"indices":3,"material":0}]}],"extensionsUsed":["KHR_materials_unlit"]}