{"asset":{"version":"2.0","generator":"THREE.GLTFExporter"},"scenes":[{"nodes":[0]}],"scene":0,"nodes":[{"matrix":[0.0010000000474974513,-8.742271677698568e-11,0,0,8.742271677698568e-11,0.0010000000474974513,0,0,0,0,-0.0010000000474974513,0,0,0,0,1],"name":"室内-一层墙体","extras":{"name":"室内-一层墙体"},"mesh":0}],"bufferViews":[{"buffer":0,"byteOffset":0,"byteLength":7188,"target":34962,"byteStride":12},{"buffer":0,"byteOffset":7188,"byteLength":7188,"target":34962,"byteStride":12},{"buffer":0,"byteOffset":14376,"byteLength":4792,"target":34962,"byteStride":8},{"buffer":0,"byteOffset":19168,"byteLength":1736,"target":34963}],"buffers":[{"byteLength":20904,"uri":"data:application/octet-stream;base64,"}],"accessors":[{"bufferView":0,"componentType":5126,"count":599,"max":[31484.5078125,8100.00341796875,13800.01171875],"min":[-15640.4951171875,-0.005151153076440096,-12799.994140625],"type":"VEC3"},{"bufferView":1,"componentType":5126,"count":599,"max":[1,1,1],"min":[-1,-1,-1],"type":"VEC3"},{"bufferView":2,"componentType":5126,"count":599,"max":[0.9989989995956421,0.9989989995956421],"min":[0.0010010009864345193,0.0010010004043579102],"type":"VEC2"},{"bufferView":3,"componentType":5123,"count":867,"max":[598],"min":[0],"type":"SCALAR"}],"materials":[{"pbrMetallicRoughness":{"baseColorFactor":[0.9411764705882353,0.9411764705882353,0.7843137254901961,1],"metallicFactor":0,"roughnessFactor":0.9},"extensions":{"KHR_materials_unlit":{}}}],"meshes":[{"primitives":[{"mode":4,"attributes":{"POSITION":0,"NORMAL":1,"TEXCOORD_0":2},"indices":3,"material":0}]}],"extensionsUsed":["KHR_materials_unlit"]}