{"asset":{"version":"2.0","generator":"THREE.GLTFExporter"},"scenes":[{"nodes":[0]}],"scene":0,"nodes":[{"matrix":[0.0010000000474974513,-8.742280204211802e-11,0,0,8.742280204211802e-11,0.0010000000474974513,0,0,0,0,-0.0010000000474974513,0,0,0,0,1],"name":"室内-二层墙体Part1","extras":{"name":"室内-二层墙体Part1"},"mesh":0}],"bufferViews":[{"buffer":0,"byteOffset":0,"byteLength":4164,"target":34962,"byteStride":12},{"buffer":0,"byteOffset":4164,"byteLength":4164,"target":34962,"byteStride":12},{"buffer":0,"byteOffset":8328,"byteLength":2776,"target":34962,"byteStride":8},{"buffer":0,"byteOffset":11104,"byteLength":1028,"target":34963}],"buffers":[{"byteLength":12132,"uri":"data:application/octet-stream;base64,"}],"accessors":[{"bufferView":0,"componentType":5126,"count":347,"max":[34909,19359.5,13700.0009765625],"min":[-15040.9990234375,8100.0009765625,-10700],"type":"VEC3"},{"bufferView":1,"componentType":5126,"count":347,"max":[1,0.001054643769748509,1],"min":[-1,-1,-1],"type":"VEC3"},{"bufferView":2,"componentType":5126,"count":347,"max":[0.9989989995956421,0.9989989995956421],"min":[0.0010010009864345193,0.0010010004043579102],"type":"VEC2"},{"bufferView":3,"componentType":5123,"count":513,"max":[346],"min":[0],"type":"SCALAR"}],"materials":[{"pbrMetallicRoughness":{"baseColorFactor":[0.27450980392156865,0.23529411764705882,0.1843137254901961,1],"metallicFactor":0,"roughnessFactor":0.9},"extensions":{"KHR_materials_unlit":{}}}],"meshes":[{"primitives":[{"mode":4,"attributes":{"POSITION":0,"NORMAL":1,"TEXCOORD_0":2},"indices":3,"material":0}]}],"extensionsUsed":["KHR_materials_unlit"]}