{"asset":{"version":"2.0","generator":"THREE.GLTFExporter"},"scenes":[{"nodes":[0]}],"scene":0,"nodes":[{"name":"网格.322_2","mesh":0}],"bufferViews":[{"buffer":0,"byteOffset":0,"byteLength":12672,"target":34962,"byteStride":12},{"buffer":0,"byteOffset":12672,"byteLength":12672,"target":34962,"byteStride":12},{"buffer":0,"byteOffset":25344,"byteLength":8448,"target":34962,"byteStride":8},{"buffer":0,"byteOffset":33792,"byteLength":8448,"target":34962,"byteStride":8},{"buffer":0,"byteOffset":42240,"byteLength":2112,"target":34963}],"buffers":[{"byteLength":44352,"uri":"data:application/octet-stream;base64,"}],"accessors":[{"bufferView":0,"componentType":5126,"count":1056,"max":[-13605.501953125,-9701.4921875,-2739.494384765625],"min":[-25290.998046875,-19550.5,-8099],"type":"VEC3"},{"bufferView":1,"componentType":5126,"count":1056,"max":[1,1,1],"min":[-1,-1,-1],"type":"VEC3"},{"bufferView":2,"componentType":5126,"count":1056,"max":[0,1],"min":[0,1],"type":"VEC2"},{"bufferView":3,"componentType":5126,"count":1056,"max":[0.9989989995956421,0.9989989995956421],"min":[0.03094112128019333,0.13872557878494263],"type":"VEC2"},{"bufferView":4,"componentType":5123,"count":1056,"max":[1055],"min":[0],"type":"SCALAR"}],"materials":[{"pbrMetallicRoughness":{"baseColorFactor":[0.5882353186607361,0.5882353186607361,0.5882353186607361,1],"metallicFactor":1,"roughnessFactor":0.858578622341156},"doubleSided":true,"name":"shineilouti.001"}],"meshes":[{"primitives":[{"mode":4,"attributes":{"POSITION":0,"NORMAL":1,"TEXCOORD_0":2,"TEXCOORD_1":3},"indices":4,"material":0}]}]}