{"asset":{"version":"2.0","generator":"THREE.GLTFExporter"},"scenes":[{"nodes":[0]}],"scene":0,"nodes":[{"matrix":[-2.3841861884754813e-10,-5.960464760645934e-11,-0.0010000002263114084,0,0.0010000002263113941,-3.576279211658945e-10,-5.960464760645934e-11,0,-1.788139570302334e-10,-0.0010000002263113941,-1.1920930231834637e-10,0,0,0,0,1],"name":"外部防盗门","extras":{"name":"外部防盗门"},"mesh":0}],"bufferViews":[{"buffer":0,"byteOffset":0,"byteLength":12960,"target":34962,"byteStride":12},{"buffer":0,"byteOffset":12960,"byteLength":12960,"target":34962,"byteStride":12},{"buffer":0,"byteOffset":25920,"byteLength":8640,"target":34962,"byteStride":8},{"buffer":0,"byteOffset":34560,"byteLength":2160,"target":34963}],"buffers":[{"byteLength":36720,"uri":"data:application/octet-stream;base64,"}],"accessors":[{"bufferView":0,"componentType":5126,"count":1080,"max":[15499.9970703125,30259.49609375,-356.677490234375],"min":[-16780,3858.5068359375,-3257.505126953125],"type":"VEC3"},{"bufferView":1,"componentType":5126,"count":1080,"max":[1,1,1],"min":[-1,-1,-1],"type":"VEC3"},{"bufferView":2,"componentType":5126,"count":1080,"max":[0.9989989995956421,0.9989989995956421],"min":[0.0010010009864345193,0.0010010004043579102],"type":"VEC2"},{"bufferView":3,"componentType":5123,"count":1080,"max":[1079],"min":[0],"type":"SCALAR"}],"materials":[{"pbrMetallicRoughness":{"baseColorFactor":[0.5882353186607361,0.05490196496248245,0.05490196496248245,1],"metallicFactor":1,"roughnessFactor":0.858578622341156},"doubleSided":true,"name":"红漆材质_01"}],"meshes":[{"primitives":[{"mode":4,"attributes":{"POSITION":0,"NORMAL":1,"TEXCOORD_0":2},"indices":3,"material":0}]}]}