{"asset":{"version":"2.0","generator":"THREE.GLTFExporter"},"scenes":[{"nodes":[0]}],"scene":0,"nodes":[{"matrix":[0.0007999999797903001,0,0,0,0,0.0007999999797903001,0,0,0,0,0.0007999999797903001,0,0,0,0,1],"name":"室内-舞台吊灯顶片（非）","extras":{"name":"室内-舞台吊灯顶片（非）"},"mesh":0}],"bufferViews":[{"buffer":0,"byteOffset":0,"byteLength":33408,"target":34962,"byteStride":12},{"buffer":0,"byteOffset":33408,"byteLength":33408,"target":34962,"byteStride":12},{"buffer":0,"byteOffset":66816,"byteLength":22272,"target":34962,"byteStride":8},{"buffer":0,"byteOffset":89088,"byteLength":5568,"target":34963}],"buffers":[{"byteLength":94656,"uri":"data:application/octet-stream;base64,"}],"accessors":[{"bufferView":0,"componentType":5126,"count":2784,"max":[25789.919921875,13257.119140625,7025.00537109375],"min":[21289.552734375,12849.998046875,-9683.8466796875],"type":"VEC3"},{"bufferView":1,"componentType":5126,"count":2784,"max":[1,1,1],"min":[-1,-0.9512682557106018,-1],"type":"VEC3"},{"bufferView":2,"componentType":5126,"count":2784,"max":[0.9989989995956421,0.9989989995956421],"min":[0.0010010009864345193,0.0010010004043579102],"type":"VEC2"},{"bufferView":3,"componentType":5123,"count":2784,"max":[2783],"min":[0],"type":"SCALAR"}],"materials":[{"pbrMetallicRoughness":{"baseColorFactor":[0.005177759565412998,0.005177759565412998,0.005177759565412998,1],"metallicFactor":1,"roughnessFactor":0.6179999709129333},"doubleSided":true,"name":"黑色金属材质_01"}],"meshes":[{"primitives":[{"mode":4,"attributes":{"POSITION":0,"NORMAL":1,"TEXCOORD_0":2},"indices":3,"material":0}]}]}