{"asset":{"version":"2.0","generator":"THREE.GLTFExporter"},"scenes":[{"nodes":[0]}],"scene":0,"nodes":[{"matrix":[0.0004813699924852699,0,0,0,0,0.0004813699924852699,0,0,0,0,0.0004813699924852699,0,0,0,0,1],"name":"室内-木制景物02","extras":{"name":"室内-木制景物02"},"mesh":0}],"bufferViews":[{"buffer":0,"byteOffset":0,"byteLength":8496,"target":34962,"byteStride":12},{"buffer":0,"byteOffset":8496,"byteLength":8496,"target":34962,"byteStride":12},{"buffer":0,"byteOffset":16992,"byteLength":5664,"target":34962,"byteStride":8},{"buffer":0,"byteOffset":22656,"byteLength":1836,"target":34963}],"buffers":[{"byteLength":24492,"uri":"data:application/octet-stream;base64,"}],"accessors":[{"bufferView":0,"componentType":5126,"count":708,"max":[32860.39453125,15351.5546875,20594.396484375],"min":[28833.62890625,-188.015625,-26770.419921875],"type":"VEC3"},{"bufferView":1,"componentType":5126,"count":708,"max":[0.9359112977981567,1,0.7811436057090759],"min":[-1,-1,-1],"type":"VEC3"},{"bufferView":2,"componentType":5126,"count":708,"max":[0.9989989995956421,0.9989989995956421],"min":[0.0010010009864345193,0.0010010004043579102],"type":"VEC2"},{"bufferView":3,"componentType":5123,"count":918,"max":[707],"min":[0],"type":"SCALAR"}],"materials":[{"pbrMetallicRoughness":{"baseColorFactor":[0.9411764705882353,0.9411764705882353,0.7843137254901961,1],"metallicFactor":0,"roughnessFactor":0.9},"extensions":{"KHR_materials_unlit":{}}}],"meshes":[{"primitives":[{"mode":4,"attributes":{"POSITION":0,"NORMAL":1,"TEXCOORD_0":2},"indices":3,"material":0}]}],"extensionsUsed":["KHR_materials_unlit"]}