{"asset":{"version":"2.0","generator":"THREE.GLTFExporter"},"scenes":[{"nodes":[0]}],"scene":0,"nodes":[{"matrix":[-0.0000012746568786527442,0,3.4320019500933943,0,0,-3.4320030212402344,0,0,-3.431998612233401,0,-0.0000012746556389604999,0,-2.7884042263031006,7.8037004470825195,-10.472420692443848,1],"name":"室内-顶灯灯泡(（非）","extras":{"name":"室内-顶灯灯泡(（非）"},"mesh":0}],"bufferViews":[{"buffer":0,"byteOffset":0,"byteLength":23616,"target":34962,"byteStride":12},{"buffer":0,"byteOffset":23616,"byteLength":23616,"target":34962,"byteStride":12},{"buffer":0,"byteOffset":47232,"byteLength":15744,"target":34962,"byteStride":8},{"buffer":0,"byteOffset":62976,"byteLength":17280,"target":34963}],"buffers":[{"byteLength":80256,"uri":"data:application/octet-stream;base64,"}],"accessors":[{"bufferView":0,"componentType":5126,"count":1968,"max":[5.437751770019531,0.007752505596727133,2.17177152633667],"min":[-0.031787458807229996,0.007749882061034441,-0.03178919479250908],"type":"VEC3"},{"bufferView":1,"componentType":5126,"count":1968,"max":[1.0524894378249883e-7,1,0],"min":[-1.0524895799335354e-7,0.9999999403953552,0],"type":"VEC3"},{"bufferView":2,"componentType":5126,"count":1968,"max":[1,1],"min":[2.9802322387695312e-8,0],"type":"VEC2"},{"bufferView":3,"componentType":5123,"count":8640,"max":[1967],"min":[0],"type":"SCALAR"}],"materials":[{"pbrMetallicRoughness":{"metallicFactor":1,"roughnessFactor":0.858578622341156},"emissiveFactor":[0.799102783203125,0.799102783203125,0.799102783203125],"doubleSided":true,"name":"灯板材质_01"}],"meshes":[{"primitives":[{"mode":4,"attributes":{"POSITION":0,"NORMAL":1,"TEXCOORD_0":2},"indices":3,"material":0}]}]}