{"asset":{"version":"2.0","generator":"THREE.GLTFExporter"},"scenes":[{"nodes":[0]}],"scene":0,"nodes":[{"matrix":[0.0010000000474974513,0,0,0,0,0.0010000000474974513,0,0,0,0,0.0010000000474974513,0,0,0,0,1],"name":"室内-舞台灯架（非）","extras":{"name":"室内-舞台灯架（非）"},"mesh":0}],"bufferViews":[{"buffer":0,"byteOffset":0,"byteLength":698112,"target":34962,"byteStride":12},{"buffer":0,"byteOffset":698112,"byteLength":698112,"target":34962,"byteStride":12},{"buffer":0,"byteOffset":1396224,"byteLength":465408,"target":34962,"byteStride":8},{"buffer":0,"byteOffset":1861632,"byteLength":149568,"target":34963}],"buffers":[{"byteLength":2011200,"uri":"data:application/octet-stream;base64,"}],"accessors":[{"bufferView":0,"componentType":5126,"count":58176,"max":[28977.251953125,11767.9189453125,7600.0009765625],"min":[16777.251953125,10667.9189453125,-10599.9990234375],"type":"VEC3"},{"bufferView":1,"componentType":5126,"count":58176,"max":[0.9716468453407288,0.9716496467590332,0.9716488718986511],"min":[-0.9716468453407288,-0.9716482162475586,-0.9716501832008362],"type":"VEC3"},{"bufferView":2,"componentType":5126,"count":58176,"max":[0.9989989995956421,0.9989989995956421],"min":[0.0010010009864345193,0.0010010004043579102],"type":"VEC2"},{"bufferView":3,"componentType":5123,"count":74784,"max":[58175],"min":[0],"type":"SCALAR"}],"materials":[{"pbrMetallicRoughness":{"baseColorFactor":[0,0,0,1],"metallicFactor":1,"roughnessFactor":0.6179999709129333},"doubleSided":true,"name":"室内-舞台灯架"}],"meshes":[{"primitives":[{"mode":4,"attributes":{"POSITION":0,"NORMAL":1,"TEXCOORD_0":2},"indices":3,"material":0}]}]}