{
    "asset" : {
        "generator" : "Khronos glTF Blender I/O v1.3.48",
        "version" : "2.0"
    },
    "scene" : 0,
    "scenes" : [
        {
            "name" : "Scene",
            "nodes" : [
                0
            ]
        }
    ],
    "nodes" : [
        {
            "mesh" : 0,
            "name" : "\u5ba4\u5185-\u53ef\u52a8\u95e801",
            "rotation" : [
                0.4999999403953552,
                -0.5,
                0.5000000596046448,
                0.4999999701976776
            ],
            "scale" : [
                -0.0010000000474974513,
                -0.0010000000474974513,
                -0.0010000000474974513
            ],
            "translation" : [
                -12.524420738220215,
                2.741199493408203,
                3.2900733947753906
            ]
        }
    ],
    "materials" : [
        {
            "doubleSided" : true,
            "emissiveFactor" : [
                1,
                1,
                1
            ],
            "emissiveTexture" : {
                "index" : 0,
                "texCoord" : 0
            },
            "name" : "\u5e03\u666f\u95e8\u6728\u4ef6",
            "pbrMetallicRoughness" : {
                "baseColorFactor" : [
                    1,
                    1,
                    1,
                    1
                ],
                "metallicFactor" : 1,
                "roughnessFactor" : 1
            }
        },
        {
            "doubleSided" : true,
            "emissiveFactor" : [
                0.09593869000673294,
                0.09593869000673294,
                0.09593869000673294
            ],
            "name" : "\u73bb\u7483\u6750\u8d28_01",
            "pbrMetallicRoughness" : {
                "baseColorFactor" : [
                    1,
                    1,
                    1,
                    1
                ],
                "metallicFactor" : 0.20000000298023224,
                "roughnessFactor" : 0
            }
        },
        {
            "doubleSided" : true,
            "emissiveFactor" : [
                0.5583405494689941,
                0.6866853833198547,
                0.7912980914115906
            ],
            "name" : "\u767d\u8272\u91d1\u5c5e\u6750\u8d28_01",
            "pbrMetallicRoughness" : {
                "baseColorFactor" : [
                    0.5568627715110779,
                    0.686274528503418,
                    0.7882353663444519,
                    1
                ],
                "metallicFactor" : 1,
                "roughnessFactor" : 0.38199999928474426
            }
        }
    ],
    "meshes" : [
        {
            "name" : "\u7f51\u683c.022",
            "primitives" : [
                {
                    "attributes" : {
                        "POSITION" : 0
                    },
                    "indices" : 1,
                    "material" : 0
                },
                {
                    "attributes" : {
                        "POSITION" : 2
                    },
                    "indices" : 3,
                    "material" : 1
                },
                {
                    "attributes" : {
                        "POSITION" : 4
                    },
                    "indices" : 5,
                    "material" : 2
                }
            ]
        }
    ],
    "textures" : [
        {
            "source" : 0
        }
    ],
    "images" : [
        {
            "bufferView" : 2,
            "mimeType" : "image/jpeg",
            "name" : "door"
        }
    ],
    "accessors" : [
        {
            "bufferView" : 0,
            "componentType" : 5126,
            "count" : 132,
            "max" : [
                890.0732421875,
                20.0009765625,
                2335.459716796875
            ],
            "min" : [
                -1.500244140625,
                -20,
                -1.183837890625
            ],
            "type" : "VEC3"
        },
        {
            "bufferView" : 1,
            "componentType" : 5123,
            "count" : 150,
            "type" : "SCALAR"
        },
        {
            "bufferView" : 3,
            "componentType" : 5126,
            "count" : 28,
            "max" : [
                759.19580078125,
                30.0009765625,
                2232.154296875
            ],
            "min" : [
                129.37646484375,
                20,
                102.122314453125
            ],
            "type" : "VEC3"
        },
        {
            "bufferView" : 4,
            "componentType" : 5123,
            "count" : 30,
            "type" : "SCALAR"
        },
        {
            "bufferView" : 5,
            "componentType" : 5126,
            "count" : 176,
            "max" : [
                836.13916015625,
                173.7158203125,
                1478.31787109375
            ],
            "min" : [
                786.13916015625,
                0.607421875,
                278.31787109375
            ],
            "type" : "VEC3"
        },
        {
            "bufferView" : 6,
            "componentType" : 5123,
            "count" : 396,
            "type" : "SCALAR"
        }
    ],
    "bufferViews" : [
        {
            "buffer" : 0,
            "byteLength" : 1584,
            "byteOffset" : 0
        },
        {
            "buffer" : 0,
            "byteLength" : 300,
            "byteOffset" : 1584
        },
        {
            "buffer" : 0,
            "byteLength" : 2274,
            "byteOffset" : 1884
        },
        {
            "buffer" : 0,
            "byteLength" : 336,
            "byteOffset" : 4160
        },
        {
            "buffer" : 0,
            "byteLength" : 60,
            "byteOffset" : 4496
        },
        {
            "buffer" : 0,
            "byteLength" : 2112,
            "byteOffset" : 4556
        },
        {
            "buffer" : 0,
            "byteLength" : 792,
            "byteOffset" : 6668
        }
    ],
    "buffers" : [
        {
            "byteLength" : 7460,
            "uri" : "data:application/octet-stream;base64,"
        }
    ]
}
