{"asset":{"version":"2.0","generator":"THREE.GLTFExporter"},"scenes":[{"nodes":[0]}],"scene":0,"nodes":[{"name":"网格322","mesh":0}],"bufferViews":[{"buffer":0,"byteOffset":0,"byteLength":17460,"target":34962,"byteStride":12},{"buffer":0,"byteOffset":17460,"byteLength":17460,"target":34962,"byteStride":12},{"buffer":0,"byteOffset":34920,"byteLength":11640,"target":34962,"byteStride":8},{"buffer":0,"byteOffset":46560,"byteLength":11640,"target":34962,"byteStride":8},{"buffer":0,"byteOffset":58200,"byteLength":2912,"target":34963}],"buffers":[{"byteLength":61112,"uri":"data:application/octet-stream;base64,"}],"accessors":[{"bufferView":0,"componentType":5126,"count":1455,"max":[35209,16780,90.50387573242188],"min":[-25291.001953125,-19550.5,-8102.00341796875],"type":"VEC3"},{"bufferView":1,"componentType":5126,"count":1455,"max":[1,1,1],"min":[-1,-1,-1],"type":"VEC3"},{"bufferView":2,"componentType":5126,"count":1455,"max":[41.6090087890625,36.60051345825195],"min":[-39.816986083984375,-35.60051345825195],"type":"VEC2"},{"bufferView":3,"componentType":5126,"count":1455,"max":[0.9989989995956421,0.9989989995956421],"min":[0.0010010009864345193,0.0010010004043579102],"type":"VEC2"},{"bufferView":4,"componentType":5123,"count":1455,"max":[1454],"min":[0],"type":"SCALAR"}],"materials":[{"pbrMetallicRoughness":{"baseColorFactor":[0.4392157196998596,0.4392157196998596,0.4392157196998596,1],"metallicFactor":1,"roughnessFactor":0.8999999761581421},"emissiveFactor":[0.047501035034656525,0.047501035034656525,0.047501035034656525],"doubleSided":true,"name":"地面材质_01"}],"meshes":[{"primitives":[{"mode":4,"attributes":{"POSITION":0,"NORMAL":1,"TEXCOORD_0":2,"TEXCOORD_1":3},"indices":4,"material":0}]}]}