{"asset":{"version":"2.0","generator":"THREE.GLTFExporter"},"scenes":[{"nodes":[0]}],"scene":0,"nodes":[{"matrix":[0.0009740975158894207,0.0002610086202012578,9.460718437024074e-11,0,0.00012872924717889292,-0.00048042434168283504,0.0004973718428284701,0,0.00012872935842276055,-0.0004804243792773632,-0.0004973719429386794,0,0.00000286102294921875,0,0,1],"name":"室内-造雾器机罩（非）","extras":{"name":"室内-造雾器机罩（非）"},"mesh":0}],"bufferViews":[{"buffer":0,"byteOffset":0,"byteLength":5928,"target":34962,"byteStride":12},{"buffer":0,"byteOffset":5928,"byteLength":5928,"target":34962,"byteStride":12},{"buffer":0,"byteOffset":11856,"byteLength":3952,"target":34962,"byteStride":8},{"buffer":0,"byteOffset":15808,"byteLength":3952,"target":34962,"byteStride":8},{"buffer":0,"byteOffset":19760,"byteLength":1200,"target":34963}],"buffers":[{"byteLength":20960,"uri":"data:application/octet-stream;base64,"}],"accessors":[{"bufferView":0,"componentType":5126,"count":494,"max":[15358.8359375,7400.87841796875,10493.7275390625],"min":[15347.771484375,-4256.4189453125,-1163.5408935546875],"type":"VEC3"},{"bufferView":1,"componentType":5126,"count":494,"max":[0.9259424209594727,0.9997743964195251,0.9999902248382568],"min":[-0.014733891934156418,-0.9998891353607178,-0.9995487332344055],"type":"VEC3"},{"bufferView":2,"componentType":5126,"count":494,"max":[1.001214861869812,1.0000660419464111],"min":[0.04672721028327942,-0.0001583099365234375],"type":"VEC2"},{"bufferView":3,"componentType":5126,"count":494,"max":[0.9989989995956421,0.9989989995956421],"min":[0.0010010009864345193,0.0010010004043579102],"type":"VEC2"},{"bufferView":4,"componentType":5123,"count":600,"max":[493],"min":[0],"type":"SCALAR"}],"materials":[{"pbrMetallicRoughness":{"baseColorFactor":[0.5568627715110779,0.686274528503418,0.7882353663444519,1],"metallicFactor":1,"roughnessFactor":0.38199999928474426},"emissiveFactor":[0.5583405494689941,0.6866853833198547,0.7912980914115906],"doubleSided":true,"name":"白色金属材质_01"}],"meshes":[{"primitives":[{"mode":4,"attributes":{"POSITION":0,"NORMAL":1,"TEXCOORD_0":2,"TEXCOORD_1":3},"indices":4,"material":0}]}]}