{"asset":{"version":"2.0","generator":"THREE.GLTFExporter"},"scenes":[{"nodes":[0]}],"scene":0,"nodes":[{"matrix":[0.0010000000474974513,0,0,0,0,0.0010000000474974513,0,0,0,0,0.0010000000474974513,0,14.20095157623291,8.334500312805176,-2.300049304962158,1],"name":"室内-缓台","extras":{"name":"室内-缓台"},"mesh":0}],"bufferViews":[{"buffer":0,"byteOffset":0,"byteLength":4200,"target":34962,"byteStride":12},{"buffer":0,"byteOffset":4200,"byteLength":4200,"target":34962,"byteStride":12},{"buffer":0,"byteOffset":8400,"byteLength":2800,"target":34962,"byteStride":8},{"buffer":0,"byteOffset":11200,"byteLength":1008,"target":34963}],"buffers":[{"byteLength":12208,"uri":"data:application/octet-stream;base64,"}],"accessors":[{"bufferView":0,"componentType":5126,"count":350,"max":[-10434.833984375,300.0010070800781,12200.05078125],"min":[-16337.8349609375,-1625,-10599.951171875],"type":"VEC3"},{"bufferView":1,"componentType":5126,"count":350,"max":[0.8149794936180115,1,1],"min":[-1,-1,-1],"type":"VEC3"},{"bufferView":2,"componentType":5126,"count":350,"max":[0.9989989995956421,0.9989989995956421],"min":[0.0010010009864345193,0.0010010004043579102],"type":"VEC2"},{"bufferView":3,"componentType":5123,"count":504,"max":[349],"min":[0],"type":"SCALAR"}],"materials":[{"pbrMetallicRoughness":{"metallicFactor":1,"roughnessFactor":1},"emissiveFactor":[1,1,1],"emissiveTexture":{"index":0},"doubleSided":true,"name":"缓台"}],"textures":[{"sampler":0,"source":0}],"samplers":[{"magFilter":9729,"minFilter":9986,"wrapS":10497,"wrapT":10497}],"images":[{"mimeType":"image/jpeg","uri":"data:image/jpeg;base64,"}],"meshes":[{"primitives":[{"mode":4,"attributes":{"POSITION":0,"NORMAL":1,"TEXCOORD_0":2},"indices":3,"material":0}]}]}