{"asset":{"version":"2.0","generator":"THREE.GLTFExporter"},"scenes":[{"nodes":[0]}],"scene":0,"nodes":[{"matrix":[0.0010000000474974513,8.742280204211802e-11,0,0,-8.742280204211802e-11,0.0010000000474974513,0,0,0,0,-0.0010000000474974513,0,16.051143646240234,8.100001335144043,8.336251258850098,1],"name":"外部台阶与屋顶墙体","extras":{"name":"外部台阶与屋顶墙体"},"mesh":0}],"bufferViews":[{"buffer":0,"byteOffset":0,"byteLength":14256,"target":34962,"byteStride":12},{"buffer":0,"byteOffset":14256,"byteLength":14256,"target":34962,"byteStride":12},{"buffer":0,"byteOffset":28512,"byteLength":9504,"target":34962,"byteStride":8},{"buffer":0,"byteOffset":38016,"byteLength":2376,"target":34963}],"buffers":[{"byteLength":40392,"uri":"data:application/octet-stream;base64,"}],"accessors":[{"bufferView":0,"componentType":5126,"count":1188,"max":[19457.86328125,11459.515625,28186.25390625],"min":[-52811.1875,-8100.00390625,-11513.7490234375],"type":"VEC3"},{"bufferView":1,"componentType":5126,"count":1188,"max":[1,1,1],"min":[-1,-1,-1],"type":"VEC3"},{"bufferView":2,"componentType":5126,"count":1188,"max":[0.9989989995956421,0.9989989995956421],"min":[0.0010010009864345193,0.0010010004043579102],"type":"VEC2"},{"bufferView":3,"componentType":5123,"count":1188,"max":[1187],"min":[0],"type":"SCALAR"}],"materials":[{"pbrMetallicRoughness":{"baseColorFactor":[0.1764705926179886,0.1764705926179886,0.1764705926179886,1],"metallicFactor":1,"roughnessFactor":1},"doubleSided":true,"name":"混凝土材质_01"}],"meshes":[{"primitives":[{"mode":4,"attributes":{"POSITION":0,"NORMAL":1,"TEXCOORD_0":2},"indices":3,"material":0}]}]}