{"asset":{"version":"2.0","generator":"THREE.GLTFExporter"},"scenes":[{"nodes":[0]}],"scene":0,"nodes":[{"name":"网格.322_3","mesh":0}],"bufferViews":[{"buffer":0,"byteOffset":0,"byteLength":72,"target":34962,"byteStride":12},{"buffer":0,"byteOffset":72,"byteLength":72,"target":34962,"byteStride":12},{"buffer":0,"byteOffset":144,"byteLength":48,"target":34962,"byteStride":8},{"buffer":0,"byteOffset":192,"byteLength":48,"target":34962,"byteStride":8},{"buffer":0,"byteOffset":240,"byteLength":12,"target":34963}],"buffers":[{"byteLength":252,"uri":"data:application/octet-stream;base64,"}],"accessors":[{"bufferView":0,"componentType":5126,"count":6,"max":[-15640.498046875,9900,-2739.49853515625],"min":[-25291.001953125,-12900,-2749.498779296875],"type":"VEC3"},{"bufferView":1,"componentType":5126,"count":6,"max":[0.0010362149914726615,0,0.9999995231628418],"min":[0.0010362148750573397,-1.8179207472712733e-8,0.9999994039535522],"type":"VEC3"},{"bufferView":2,"componentType":5126,"count":6,"max":[0,1],"min":[0,1],"type":"VEC2"},{"bufferView":3,"componentType":5126,"count":6,"max":[0.5738493204116821,0.9989989995956421],"min":[0.4800429046154022,0.8093842267990112],"type":"VEC2"},{"bufferView":4,"componentType":5123,"count":6,"max":[5],"min":[0],"type":"SCALAR"}],"materials":[{"pbrMetallicRoughness":{"baseColorFactor":[0.4392157196998596,0.4392157196998596,0.4392157196998596,1],"metallicFactor":1,"roughnessFactor":0.858578622341156},"doubleSided":true,"name":"dimian02"}],"meshes":[{"primitives":[{"mode":4,"attributes":{"POSITION":0,"NORMAL":1,"TEXCOORD_0":2,"TEXCOORD_1":3},"indices":4,"material":0}]}]}