{"asset":{"version":"2.0","generator":"THREE.GLTFExporter"},"scenes":[{"nodes":[0]}],"scene":0,"nodes":[{"name":"网格.322_4","mesh":0}],"bufferViews":[{"buffer":0,"byteOffset":0,"byteLength":5544,"target":34962,"byteStride":12},{"buffer":0,"byteOffset":5544,"byteLength":5544,"target":34962,"byteStride":12},{"buffer":0,"byteOffset":11088,"byteLength":3696,"target":34962,"byteStride":8},{"buffer":0,"byteOffset":14784,"byteLength":3696,"target":34962,"byteStride":8},{"buffer":0,"byteOffset":18480,"byteLength":924,"target":34963}],"buffers":[{"byteLength":19404,"uri":"data:application/octet-stream;base64,"}],"accessors":[{"bufferView":0,"componentType":5126,"count":462,"max":[19636.755859375,-12899.99609375,-357.4972229003906],"min":[-25291.001953125,-19549.00390625,-2757.497802734375],"type":"VEC3"},{"bufferView":1,"componentType":5126,"count":462,"max":[1,3.255213414377067e-7,0],"min":[-1,-0.0000014515654811475542,-1],"type":"VEC3"},{"bufferView":2,"componentType":5126,"count":462,"max":[0,1],"min":[0,1],"type":"VEC2"},{"bufferView":3,"componentType":5126,"count":462,"max":[0.9870229363441467,0.9989989995956421],"min":[0.0010010009864345193,0.012977063655853271],"type":"VEC2"},{"bufferView":4,"componentType":5123,"count":462,"max":[461],"min":[0],"type":"SCALAR"}],"materials":[{"pbrMetallicRoughness":{"baseColorFactor":[0.4392157196998596,0.4392157196998596,0.4392157196998596,1],"metallicFactor":1,"roughnessFactor":0.858578622341156},"doubleSided":true,"name":"dimian02.001"}],"meshes":[{"primitives":[{"mode":4,"attributes":{"POSITION":0,"NORMAL":1,"TEXCOORD_0":2,"TEXCOORD_1":3},"indices":4,"material":0}]}]}