{"asset":{"version":"2.0","generator":"THREE.GLTFExporter"},"scenes":[{"nodes":[0]}],"scene":0,"nodes":[{"matrix":[0.0010000000474974513,0,0,0,0,0.0010000000474974513,0,0,0,0,0.0010000000474974513,0,0,0,0,1],"name":"室内-幕帘","extras":{"name":"室内-幕帘"},"mesh":0}],"bufferViews":[{"buffer":0,"byteOffset":0,"byteLength":86388,"target":34962,"byteStride":12},{"buffer":0,"byteOffset":86388,"byteLength":86388,"target":34962,"byteStride":12},{"buffer":0,"byteOffset":172776,"byteLength":57592,"target":34962,"byteStride":8},{"buffer":0,"byteOffset":230368,"byteLength":52416,"target":34963}],"buffers":[{"byteLength":282784,"uri":"data:application/octet-stream;base64,"}],"accessors":[{"bufferView":0,"componentType":5126,"count":7199,"max":[26173.22265625,15900.65234375,10012.19921875],"min":[16593.03515625,900.6482543945312,-12587.359375],"type":"VEC3"},{"bufferView":1,"componentType":5126,"count":7199,"max":[0.4071037173271179,0.01633347198367119,0.9989475607872009],"min":[-0.9999933838844299,-0.017033178359270096,-0.9986733198165894],"type":"VEC3"},{"bufferView":2,"componentType":5126,"count":7199,"max":[1,1],"min":[0,0.009765625],"type":"VEC2"},{"bufferView":3,"componentType":5123,"count":26208,"max":[7198],"min":[0],"type":"SCALAR"}],"materials":[{"pbrMetallicRoughness":{"metallicFactor":1,"roughnessFactor":1},"emissiveFactor":[1,1,1],"emissiveTexture":{"index":0},"doubleSided":true,"name":"幕帘"}],"textures":[{"sampler":0,"source":0}],"samplers":[{"magFilter":9729,"minFilter":9986,"wrapS":10497,"wrapT":10497}],"images":[{"mimeType":"image/jpeg","uri":"data:image/jpeg;base64,"}],"meshes":[{"primitives":[{"mode":4,"attributes":{"POSITION":0,"NORMAL":1,"TEXCOORD_0":2},"indices":3,"material":0}]}]}