{"asset":{"version":"2.0","generator":"THREE.GLTFExporter"},"scenes":[{"nodes":[0]}],"scene":0,"nodes":[{"matrix":[0.0010000000474974513,0,0,0,0,-1.3435886286675388e-10,0.0010000000132689008,0,0,-0.0010000000132689008,-1.3435886286675388e-10,0,0,0,0,1],"name":"窗体","extras":{"name":"窗体"},"mesh":0}],"bufferViews":[{"buffer":0,"byteOffset":0,"byteLength":156672,"target":34962,"byteStride":12},{"buffer":0,"byteOffset":156672,"byteLength":156672,"target":34962,"byteStride":12},{"buffer":0,"byteOffset":313344,"byteLength":45120,"target":34963}],"buffers":[{"byteLength":358464,"uri":"data:application/octet-stream;base64,"}],"accessors":[{"bufferView":0,"componentType":5126,"count":13056,"max":[35358.99609375,16699.998046875,-3634.708740234375],"min":[-24675.396484375,-19700.001953125,-12774.9521484375],"type":"VEC3"},{"bufferView":1,"componentType":5126,"count":13056,"max":[1,1,1],"min":[-1,-1,-1],"type":"VEC3"},{"bufferView":2,"componentType":5123,"count":22560,"max":[13055],"min":[0],"type":"SCALAR"}],"materials":[{"pbrMetallicRoughness":{"baseColorFactor":[0.5568627715110779,0.686274528503418,0.7882353663444519,1],"metallicFactor":1,"roughnessFactor":0.38199999928474426},"emissiveFactor":[0.5583405494689941,0.6866853833198547,0.7912980914115906],"doubleSided":true,"name":"白色金属材质_01"}],"meshes":[{"primitives":[{"mode":4,"attributes":{"POSITION":0,"NORMAL":1},"indices":2,"material":0}]}]}