{
    "asset" : {
        "generator" : "Khronos glTF Blender I/O v1.3.48",
        "version" : "2.0"
    },
    "scene" : 0,
    "scenes" : [
        {
            "name" : "Scene",
            "nodes" : [
                0
            ]
        }
    ],
    "nodes" : [
        {
            "mesh" : 0,
            "name" : "\u4e00\u5c42\u5899\u4f53",
            "rotation" : [
                0,
                0,
                -1,
                -4.371135631231482e-08
            ],
            "scale" : [
                -0.0010000000474974513,
                -0.0010000000474974513,
                -0.0010000000474974513
            ],
            "translation" : [
                -12.181999206542969,
                0,
                5.900000095367432
            ]
        }
    ],
    "meshes" : [
        {
            "name" : "Mesh_0.001",
            "primitives" : [
                {
                    "attributes" : {
                        "POSITION" : 0,
                        "TEXCOORD_0" : 1
                    },
                    "indices" : 2
                }
            ]
        }
    ],
    "accessors" : [
        {
            "bufferView" : 0,
            "componentType" : 5126,
            "count" : 7157,
            "max" : [
                47692,
                8100.00439453125,
                25750.013671875
            ],
            "min" : [
                -13409.0078125,
                -0.008390418253839016,
                -10950.5009765625
            ],
            "type" : "VEC3"
        },
        {
            "bufferView" : 1,
            "componentType" : 5126,
            "count" : 7157,
            "type" : "VEC2"
        },
        {
            "bufferView" : 2,
            "componentType" : 5123,
            "count" : 11709,
            "type" : "SCALAR"
        }
    ],
    "bufferViews" : [
        {
            "buffer" : 0,
            "byteLength" : 85884,
            "byteOffset" : 0
        },
        {
            "buffer" : 0,
            "byteLength" : 57256,
            "byteOffset" : 85884
        },
        {
            "buffer" : 0,
            "byteLength" : 23418,
            "byteOffset" : 143140
        }
    ],
    "buffers" : [
        {
            "byteLength" : 166560,
            "uri" : "data:application/octet-stream;base64,"
        }
    ]
}
