{"asset":{"version":"2.0","generator":"THREE.GLTFExporter"},"scenes":[{"nodes":[0]}],"scene":0,"nodes":[{"matrix":[0.0010000000474974513,0,0,0,0,-1.3435886286675388e-10,0.0010000000132689008,0,0,-0.0010000000132689008,-1.3435886286675388e-10,0,0,0,0,1],"name":"室内-二楼地毯","extras":{"name":"室内-二楼地毯"},"mesh":0}],"bufferViews":[{"buffer":0,"byteOffset":0,"byteLength":33144,"target":34962,"byteStride":12},{"buffer":0,"byteOffset":33144,"byteLength":33144,"target":34962,"byteStride":12},{"buffer":0,"byteOffset":66288,"byteLength":22096,"target":34962,"byteStride":8},{"buffer":0,"byteOffset":88384,"byteLength":6828,"target":34963}],"buffers":[{"byteLength":95212,"uri":"data:application/octet-stream;base64,"}],"accessors":[{"bufferView":0,"componentType":5126,"count":2762,"max":[-1240.9990234375,9899.99609375,-8009.49462890625],"min":[-15615.9990234375,-12900,-15459.498046875],"type":"VEC3"},{"bufferView":1,"componentType":5126,"count":2762,"max":[1,1,5.521591788237856e-7],"min":[-0.000007231687050079927,-1,-1],"type":"VEC3"},{"bufferView":2,"componentType":5126,"count":2762,"max":[0.9989989995956421,0.9989989995956421],"min":[0.0010010009864345193,0.0010010004043579102],"type":"VEC2"},{"bufferView":3,"componentType":5123,"count":3414,"max":[2761],"min":[0],"type":"SCALAR"}],"materials":[{"pbrMetallicRoughness":{"metallicFactor":1,"roughnessFactor":1},"emissiveFactor":[1,1,1],"emissiveTexture":{"index":0},"doubleSided":true,"name":"F2P1"}],"textures":[{"sampler":0,"source":0}],"samplers":[{"magFilter":9729,"minFilter":9986,"wrapS":10497,"wrapT":10497}],"images":[{"mimeType":"image/jpeg","uri":"data:image/jpeg;base64,"}],"meshes":[{"primitives":[{"mode":4,"attributes":{"POSITION":0,"NORMAL":1,"TEXCOORD_0":2},"indices":3,"material":0}]}]}