{"asset":{"version":"2.0","generator":"THREE.GLTFExporter"},"scenes":[{"nodes":[0]}],"scene":0,"nodes":[{"matrix":[0.0010000000474974513,0,0,0,0,-1.3435886286675388e-10,0.0010000000132689008,0,0,-0.0010000000132689008,-1.3435886286675388e-10,0,0,0,0,1],"name":"室内-台阶衬边","extras":{"name":"室内-台阶衬边"},"mesh":0}],"bufferViews":[{"buffer":0,"byteOffset":0,"byteLength":39456,"target":34962,"byteStride":12},{"buffer":0,"byteOffset":39456,"byteLength":39456,"target":34962,"byteStride":12},{"buffer":0,"byteOffset":78912,"byteLength":26304,"target":34962,"byteStride":8},{"buffer":0,"byteOffset":105216,"byteLength":7416,"target":34963}],"buffers":[{"byteLength":112632,"uri":"data:application/octet-stream;base64,"}],"accessors":[{"bufferView":0,"componentType":5126,"count":3288,"max":[3614.0009765625,8978.4931640625,-359.4952392578125],"min":[-15640.681640625,-11999.9990234375,-2789.53369140625],"type":"VEC3"},{"bufferView":1,"componentType":5126,"count":3288,"max":[1,1,0.0061250124126672745],"min":[-0.9999815821647644,-1,-1],"type":"VEC3"},{"bufferView":2,"componentType":5126,"count":3288,"max":[0.9989989995956421,0.9989989995956421],"min":[0.0010010009864345193,0.0010010004043579102],"type":"VEC2"},{"bufferView":3,"componentType":5123,"count":3708,"max":[3287],"min":[0],"type":"SCALAR"}],"materials":[{"pbrMetallicRoughness":{"metallicFactor":1,"roughnessFactor":1},"emissiveFactor":[1,1,1],"emissiveTexture":{"index":0},"doubleSided":true,"name":"黄色金属材质_01"}],"textures":[{"sampler":0,"source":0}],"samplers":[{"magFilter":9729,"minFilter":9986,"wrapS":10497,"wrapT":10497}],"images":[{"mimeType":"image/jpeg","uri":"data:image/jpeg;base64,"}],"meshes":[{"primitives":[{"mode":4,"attributes":{"POSITION":0,"NORMAL":1,"TEXCOORD_0":2},"indices":3,"material":0}]}]}