{"asset":{"version":"2.0","generator":"THREE.GLTFExporter"},"scenes":[{"nodes":[0]}],"scene":0,"nodes":[{"matrix":[0.0010000000474974513,0,0,0,0,0.0010000000474974513,0,0,0,0,0.0010000000474974513,0,0,0,0,1],"name":"室内-木制景物01","extras":{"name":"室内-木制景物01"},"mesh":0}],"bufferViews":[{"buffer":0,"byteOffset":0,"byteLength":6192,"target":34962,"byteStride":12},{"buffer":0,"byteOffset":6192,"byteLength":6192,"target":34962,"byteStride":12},{"buffer":0,"byteOffset":12384,"byteLength":4128,"target":34962,"byteStride":8},{"buffer":0,"byteOffset":16512,"byteLength":1032,"target":34963}],"buffers":[{"byteLength":17544,"uri":"data:application/octet-stream;base64,"}],"accessors":[{"bufferView":0,"componentType":5126,"count":516,"max":[16495.234375,19124.251953125,9955.30078125],"min":[-12341.4990234375,5259.7119140625,-12900],"type":"VEC3"},{"bufferView":1,"componentType":5126,"count":516,"max":[1,1,1],"min":[-1,-1,-1],"type":"VEC3"},{"bufferView":2,"componentType":5126,"count":516,"max":[0.9989989995956421,0.9989989995956421],"min":[0.0010010009864345193,0.0010010004043579102],"type":"VEC2"},{"bufferView":3,"componentType":5123,"count":516,"max":[515],"min":[0],"type":"SCALAR"}],"materials":[{"pbrMetallicRoughness":{"metallicFactor":1,"roughnessFactor":1},"emissiveFactor":[1,1,1],"emissiveTexture":{"index":0},"doubleSided":true,"name":"木制景物01"}],"textures":[{"sampler":0,"source":0}],"samplers":[{"magFilter":9729,"minFilter":9986,"wrapS":10497,"wrapT":10497}],"images":[{"mimeType":"image/jpeg","uri":"data:image/jpeg;base64,"}],"meshes":[{"primitives":[{"mode":4,"attributes":{"POSITION":0,"NORMAL":1,"TEXCOORD_0":2},"indices":3,"material":0}]}]}