{"asset":{"version":"2.0","generator":"THREE.GLTFExporter"},"scenes":[{"nodes":[0]}],"scene":0,"nodes":[{"matrix":[0.0007999999797903001,0,0,0,0,0.0007999999797903001,0,0,0,0,0.0007999999797903001,0,0,0,0,1],"name":"室内-舞台吊灯灯泡（非）","extras":{"name":"室内-舞台吊灯灯泡（非）"},"mesh":0}],"bufferViews":[{"buffer":0,"byteOffset":0,"byteLength":1152,"target":34962,"byteStride":12},{"buffer":0,"byteOffset":1152,"byteLength":1152,"target":34962,"byteStride":12},{"buffer":0,"byteOffset":2304,"byteLength":768,"target":34962,"byteStride":8},{"buffer":0,"byteOffset":3072,"byteLength":192,"target":34963}],"buffers":[{"byteLength":3264,"uri":"data:application/octet-stream;base64,"}],"accessors":[{"bufferView":0,"componentType":5126,"count":96,"max":[25658.509765625,13247.119140625,6873.3857421875],"min":[21432.541015625,13247.119140625,-9524.8125],"type":"VEC3"},{"bufferView":1,"componentType":5126,"count":96,"max":[0,-0.9999999403953552,0],"min":[0,-1,0],"type":"VEC3"},{"bufferView":2,"componentType":5126,"count":96,"max":[0.9989989995956421,0.9989989995956421],"min":[0.0010010009864345193,0.0010010004043579102],"type":"VEC2"},{"bufferView":3,"componentType":5123,"count":96,"max":[95],"min":[0],"type":"SCALAR"}],"materials":[{"pbrMetallicRoughness":{"metallicFactor":1,"roughnessFactor":0.858578622341156},"emissiveFactor":[1,1,1],"doubleSided":true,"name":"23 - Default"}],"meshes":[{"primitives":[{"mode":4,"attributes":{"POSITION":0,"NORMAL":1,"TEXCOORD_0":2},"indices":3,"material":0}]}]}