{"asset":{"version":"2.0","generator":"THREE.GLTFExporter"},"scenes":[{"nodes":[0]}],"scene":0,"nodes":[{"matrix":[0.0010000000474974513,0,0,0,0,-1.3435886286675388e-10,0.0010000000132689008,0,0,-0.0010000000132689008,-1.3435886286675388e-10,0,0,0,0,1],"name":"室内-一楼地毯","extras":{"name":"室内-一楼地毯"},"mesh":0}],"bufferViews":[{"buffer":0,"byteOffset":0,"byteLength":7392,"target":34962,"byteStride":12},{"buffer":0,"byteOffset":7392,"byteLength":7392,"target":34962,"byteStride":12},{"buffer":0,"byteOffset":14784,"byteLength":4928,"target":34962,"byteStride":8},{"buffer":0,"byteOffset":19712,"byteLength":1800,"target":34963}],"buffers":[{"byteLength":21512,"uri":"data:application/octet-stream;base64,"}],"accessors":[{"bufferView":0,"componentType":5126,"count":616,"max":[15818.005859375,9913.5234375,-39.4979248046875],"min":[-15640.498046875,-12886.4765625,-2759.4990234375],"type":"VEC3"},{"bufferView":1,"componentType":5126,"count":616,"max":[1,0.0000017229438071808545,0],"min":[-0.0020727510564029217,-2.754051990905282e-7,-1],"type":"VEC3"},{"bufferView":2,"componentType":5126,"count":616,"max":[0.9989989995956421,0.9989989995956421],"min":[0.0010010009864345193,0.0010010004043579102],"type":"VEC2"},{"bufferView":3,"componentType":5123,"count":900,"max":[615],"min":[0],"type":"SCALAR"}],"materials":[{"pbrMetallicRoughness":{"metallicFactor":1,"roughnessFactor":1},"emissiveFactor":[1,1,1],"emissiveTexture":{"index":0},"doubleSided":true,"name":"一楼地毯"}],"textures":[{"sampler":0,"source":0}],"samplers":[{"magFilter":9729,"minFilter":9986,"wrapS":10497,"wrapT":10497}],"images":[{"mimeType":"image/jpeg","uri":"data:image/jpeg;base64,"}],"meshes":[{"primitives":[{"mode":4,"attributes":{"POSITION":0,"NORMAL":1,"TEXCOORD_0":2},"indices":3,"material":0}]}]}