{"asset":{"version":"2.0","generator":"THREE.GLTFExporter"},"scenes":[{"nodes":[0]}],"scene":0,"nodes":[{"matrix":[0.0010000000474974513,-8.742271677698568e-11,0,0,8.742271677698568e-11,0.0010000000474974513,0,0,0,0,-0.0010000000474974513,0,0,0,0,1],"name":"室内-二层墙体Part2","extras":{"name":"室内-二层墙体Part2"},"mesh":0}],"bufferViews":[{"buffer":0,"byteOffset":0,"byteLength":8616,"target":34962,"byteStride":12},{"buffer":0,"byteOffset":8616,"byteLength":8616,"target":34962,"byteStride":12},{"buffer":0,"byteOffset":17232,"byteLength":5744,"target":34962,"byteStride":8},{"buffer":0,"byteOffset":22976,"byteLength":2100,"target":34963}],"buffers":[{"byteLength":25076,"uri":"data:application/octet-stream;base64,"}],"accessors":[{"bufferView":0,"componentType":5126,"count":718,"max":[35509.5,19359.51171875,13800.0146484375],"min":[18958.998046875,8099.998046875,-16250.5048828125],"type":"VEC3"},{"bufferView":1,"componentType":5126,"count":718,"max":[1,1,1],"min":[-1,-1,-1],"type":"VEC3"},{"bufferView":2,"componentType":5126,"count":718,"max":[0.9989989995956421,0.9989989995956421],"min":[0.0010010009864345193,0.0010010004043579102],"type":"VEC2"},{"bufferView":3,"componentType":5123,"count":1050,"max":[717],"min":[0],"type":"SCALAR"}],"materials":[{"pbrMetallicRoughness":{"metallicFactor":1,"roughnessFactor":1},"emissiveFactor":[1,1,1],"emissiveTexture":{"index":0},"doubleSided":true,"name":"室内-二层墙体Part2"}],"textures":[{"sampler":0,"source":0}],"samplers":[{"magFilter":9729,"minFilter":9986,"wrapS":10497,"wrapT":10497}],"images":[{"mimeType":"image/jpeg","uri":"data:image/jpeg;base64,"}],"meshes":[{"primitives":[{"mode":4,"attributes":{"POSITION":0,"NORMAL":1,"TEXCOORD_0":2},"indices":3,"material":0}]}]}