{"asset":{"version":"2.0","generator":"THREE.GLTFExporter"},"scenes":[{"nodes":[0]}],"scene":0,"nodes":[{"matrix":[-0.0010000000474974513,0,0,0,0,0.0010000000474974513,-1.5099580970000242e-10,0,0,1.5099580970000242e-10,0.0010000000474974513,0,16.85699462890625,10.845847129821777,-1.4999980926513672,1],"name":"室内-电子显示屏（非）","extras":{"name":"室内-电子显示屏（非）"},"mesh":0}],"bufferViews":[{"buffer":0,"byteOffset":0,"byteLength":360,"target":34962,"byteStride":12},{"buffer":0,"byteOffset":360,"byteLength":360,"target":34962,"byteStride":12},{"buffer":0,"byteOffset":720,"byteLength":240,"target":34962,"byteStride":8},{"buffer":0,"byteOffset":960,"byteLength":96,"target":34963}],"buffers":[{"byteLength":1056,"uri":"data:application/octet-stream;base64,"}],"accessors":[{"bufferView":0,"componentType":5126,"count":30,"max":[370.25,1200,7899.99951171875],"min":[218.263671875,199.99996948242188,-7899.99951171875],"type":"VEC3"},{"bufferView":1,"componentType":5126,"count":30,"max":[1,1,1],"min":[-1,-1,-1],"type":"VEC3"},{"bufferView":2,"componentType":5126,"count":30,"max":[1.0170931816101074,0.9995004534721375],"min":[-0.07723231613636017,0.0004995465278625488],"type":"VEC2"},{"bufferView":3,"componentType":5123,"count":48,"max":[29],"min":[0],"type":"SCALAR"}],"materials":[{"pbrMetallicRoughness":{"metallicFactor":1,"roughnessFactor":0.858578622341156,"baseColorTexture":{"index":0}},"emissiveFactor":[1,1,1],"emissiveTexture":{"index":1},"doubleSided":true,"name":"led zi"}],"textures":[{"sampler":0,"source":0},{"sampler":1,"source":1}],"samplers":[{"magFilter":9729,"minFilter":9986,"wrapS":10497,"wrapT":10497},{"magFilter":9729,"minFilter":9986,"wrapS":10497,"wrapT":10497}],"images":[{"mimeType":"image/jpeg","uri":"data:image/jpeg;base64,"},{"mimeType":"image/jpeg","uri":"data:image/jpeg;base64,"}],"meshes":[{"primitives":[{"mode":4,"attributes":{"POSITION":0,"NORMAL":1,"TEXCOORD_0":2},"indices":3,"material":0}]}]}