{"asset":{"version":"2.0","generator":"THREE.GLTFExporter"},"scenes":[{"nodes":[0]}],"scene":0,"nodes":[{"matrix":[-1.8120947722524228e-10,-7.248378062921825e-10,-0.0030401900876313014,0,0.0011167499469593306,6.656345810274312e-11,-6.656349182643202e-11,0,1.8120947182477982e-10,-0.0030401900876313014,7.248377468870955e-10,0,18.65098762512207,1.176297903060913,-6.120392322540283,1],"name":"室内-校徽（非）","extras":{"name":"室内-校徽（非）"},"mesh":0}],"bufferViews":[{"buffer":0,"byteOffset":0,"byteLength":7008,"target":34962,"byteStride":12},{"buffer":0,"byteOffset":7008,"byteLength":7008,"target":34962,"byteStride":12},{"buffer":0,"byteOffset":14016,"byteLength":4672,"target":34962,"byteStride":8},{"buffer":0,"byteOffset":18688,"byteLength":3408,"target":34963}],"buffers":[{"byteLength":22096,"uri":"data:application/octet-stream;base64,"}],"accessors":[{"bufferView":0,"componentType":5126,"count":584,"max":[161.45933532714844,17,0],"min":[77.78458404541016,0,-106.7646713256836],"type":"VEC3"},{"bufferView":1,"componentType":5126,"count":584,"max":[1,1,0.9887915253639221],"min":[-1,-1,-0.999911367893219],"type":"VEC3"},{"bufferView":2,"componentType":5126,"count":584,"max":[0.9995005130767822,0.9995003938674927],"min":[0.0004996061325073242,0.0004994869232177734],"type":"VEC2"},{"bufferView":3,"componentType":5123,"count":1704,"max":[583],"min":[0],"type":"SCALAR"}],"materials":[{"pbrMetallicRoughness":{"metallicFactor":1,"roughnessFactor":0.6179999709129333,"baseColorTexture":{"index":0}},"emissiveFactor":[1,1,1],"emissiveTexture":{"index":1},"doubleSided":true,"name":"不锈钢镜面 "}],"textures":[{"sampler":0,"source":0},{"sampler":1,"source":1}],"samplers":[{"magFilter":9729,"minFilter":9986,"wrapS":10497,"wrapT":10497},{"magFilter":9729,"minFilter":9986,"wrapS":10497,"wrapT":10497}],"images":[{"mimeType":"image/png","uri":"data:image/png;base64,"},{"mimeType":"image/png","uri":"data:image/png;base64,"}],"meshes":[{"primitives":[{"mode":4,"attributes":{"POSITION":0,"NORMAL":1,"TEXCOORD_0":2},"indices":3,"material":0}]}]}