{
    "asset" : {
        "generator" : "Khronos glTF Blender I/O v1.3.48",
        "version" : "2.0"
    },
    "scene" : 0,
    "scenes" : [
        {
            "name" : "Scene",
            "nodes" : [
                0
            ]
        }
    ],
    "nodes" : [
        {
            "mesh" : 0,
            "name" : "\u5ba4\u5185-\u4e00\u697c\u5730\u6bef",
            "rotation" : [
                0.7071068286895752,
                0,
                0,
                0.7071067094802856
            ],
            "scale" : [
                0.0010000000474974513,
                0.0010000000474974513,
                0.0010000000474974513
            ]
        }
    ],
    "meshes" : [
        {
            "name" : "Mesh_0",
            "primitives" : [
                {
                    "attributes" : {
                        "POSITION" : 0,
                        "NORMAL" : 1,
                        "TEXCOORD_0" : 2
                    },
                    "indices" : 3
                }
            ]
        }
    ],
    "accessors" : [
        {
            "bufferView" : 0,
            "componentType" : 5126,
            "count" : 788,
            "max" : [
                15818.005859375,
                9913.5234375,
                -39.4979248046875
            ],
            "min" : [
                -15640.498046875,
                -12886.4765625,
                -2759.4990234375
            ],
            "type" : "VEC3"
        },
        {
            "bufferView" : 1,
            "componentType" : 5126,
            "count" : 788,
            "type" : "VEC3"
        },
        {
            "bufferView" : 2,
            "componentType" : 5126,
            "count" : 788,
            "type" : "VEC2"
        },
        {
            "bufferView" : 3,
            "componentType" : 5123,
            "count" : 900,
            "type" : "SCALAR"
        }
    ],
    "bufferViews" : [
        {
            "buffer" : 0,
            "byteLength" : 9456,
            "byteOffset" : 0
        },
        {
            "buffer" : 0,
            "byteLength" : 9456,
            "byteOffset" : 9456
        },
        {
            "buffer" : 0,
            "byteLength" : 6304,
            "byteOffset" : 18912
        },
        {
            "buffer" : 0,
            "byteLength" : 1800,
            "byteOffset" : 25216
        }
    ],
    "buffers" : [
        {
            "byteLength" : 27016,
            "uri" : "new33.bin"
        }
    ]
}
