{"asset":{"version":"2.0","generator":"THREE.GLTFExporter"},"scenes":[{"nodes":[0]}],"scene":0,"nodes":[{"matrix":[0.0009740975232667674,0.000261008589695703,3.0898088163129115e-11,0,0.0001287292290317419,-0.0004804241854548653,0.0004973719609415721,0,0.00012872933582650705,-0.000480424465000733,-0.0004973717456414907,0,0,0,0,1],"name":"室内-造雾器机箱（非）","extras":{"name":"室内-造雾器机箱（非）"},"mesh":0}],"bufferViews":[{"buffer":0,"byteOffset":0,"byteLength":9024,"target":34962,"byteStride":12},{"buffer":0,"byteOffset":9024,"byteLength":9024,"target":34962,"byteStride":12},{"buffer":0,"byteOffset":18048,"byteLength":6016,"target":34962,"byteStride":8},{"buffer":0,"byteOffset":24064,"byteLength":1968,"target":34963}],"buffers":[{"byteLength":26032,"uri":"data:application/octet-stream;base64,"}],"accessors":[{"bufferView":0,"componentType":5126,"count":752,"max":[15352.0498046875,7456.75927734375,10548.763671875],"min":[15040.904296875,-4311.69189453125,-1219.6795654296875],"type":"VEC3"},{"bufferView":1,"componentType":5126,"count":752,"max":[1,0.707111656665802,0.7071118354797363],"min":[-1,-0.7071320414543152,-0.7071408033370972],"type":"VEC3"},{"bufferView":2,"componentType":5126,"count":752,"max":[0.9989989995956421,0.9989989995956421],"min":[0.0010010009864345193,0.0010010004043579102],"type":"VEC2"},{"bufferView":3,"componentType":5123,"count":984,"max":[751],"min":[0],"type":"SCALAR"}],"materials":[{"pbrMetallicRoughness":{"baseColorFactor":[0,0,0,1],"metallicFactor":0,"roughnessFactor":0.5},"emissiveFactor":[1,1,1],"emissiveTexture":{"index":0},"doubleSided":true,"name":"造雾器机箱"}],"textures":[{"sampler":0,"source":0}],"samplers":[{"magFilter":9729,"minFilter":9986,"wrapS":10497,"wrapT":10497}],"images":[{"mimeType":"image/png","uri":"data:image/png;base64,"}],"meshes":[{"primitives":[{"mode":4,"attributes":{"POSITION":0,"NORMAL":1,"TEXCOORD_0":2},"indices":3,"material":0}]}]}