{"asset":{"version":"2.0","generator":"THREE.GLTFExporter"},"scenes":[{"nodes":[0]}],"scene":0,"nodes":[{"name":"网格053","mesh":0}],"bufferViews":[{"buffer":0,"byteOffset":0,"byteLength":240,"target":34962,"byteStride":12},{"buffer":0,"byteOffset":240,"byteLength":240,"target":34962,"byteStride":12},{"buffer":0,"byteOffset":480,"byteLength":160,"target":34962,"byteStride":8},{"buffer":0,"byteOffset":640,"byteLength":60,"target":34963}],"buffers":[{"byteLength":700,"uri":"data:application/octet-stream;base64,"}],"accessors":[{"bufferView":0,"componentType":5126,"count":20,"max":[9897.9990234375,410.5374755859375,-7601.43896484375],"min":[-6898.0009765625,400.5374755859375,-8501.439453125],"type":"VEC3"},{"bufferView":1,"componentType":5126,"count":20,"max":[1,1,0.9999999403953552],"min":[-1,0,-0.9999999403953552],"type":"VEC3"},{"bufferView":2,"componentType":5126,"count":20,"max":[1,1],"min":[0,0],"type":"VEC2"},{"bufferView":3,"componentType":5123,"count":30,"max":[19],"min":[0],"type":"SCALAR"}],"materials":[{"pbrMetallicRoughness":{"baseColorFactor":[0.686274528503418,0.003921568859368563,0.003921568859368563,1],"metallicFactor":0.20000000298023224,"roughnessFactor":0.8999999761581421},"emissiveFactor":[0.6866853833198547,0.0040247174911201,0.0040247174911201],"doubleSided":true,"name":"02 - Default"}],"meshes":[{"primitives":[{"mode":4,"attributes":{"POSITION":0,"NORMAL":1,"TEXCOORD_0":2},"indices":3,"material":0}]}]}