{"asset":{"version":"2.0","generator":"THREE.GLTFExporter"},"scenes":[{"nodes":[0]}],"scene":0,"nodes":[{"matrix":[0.000002598550619410233,0,3.2132102667653974,0,0,-3.213207244873047,0,0,-3.2132050215563948,0,0.0000025985463775648598,0,0,0,0,1],"name":"室内-顶灯灯壳（非）","extras":{"name":"室内-顶灯灯壳（非）"},"mesh":0}],"bufferViews":[{"buffer":0,"byteOffset":0,"byteLength":149688,"target":34962,"byteStride":12},{"buffer":0,"byteOffset":149688,"byteLength":149688,"target":34962,"byteStride":12},{"buffer":0,"byteOffset":299376,"byteLength":99792,"target":34962,"byteStride":8},{"buffer":0,"byteOffset":399168,"byteLength":63368,"target":34963}],"buffers":[{"byteLength":462536,"uri":"data:application/octet-stream;base64,"}],"accessors":[{"bufferView":0,"componentType":5126,"count":12474,"max":[2.554415702819824,-2.418438196182251,3.1916344165802],"min":[-3.298896551132202,-2.4465324878692627,0.8269013166427612],"type":"VEC3"},{"bufferView":1,"componentType":5126,"count":12474,"max":[0.9992116093635559,0.9994240999221802,0.9990024566650391],"min":[-0.9989973902702332,-0.7151488065719604,-0.9990022778511047],"type":"VEC3"},{"bufferView":2,"componentType":5126,"count":12474,"max":[1,1],"min":[0,0.5],"type":"VEC2"},{"bufferView":3,"componentType":5123,"count":31683,"max":[12473],"min":[0],"type":"SCALAR"}],"materials":[{"pbrMetallicRoughness":{"baseColorFactor":[0.2352941334247589,0.2352941334247589,0.2352941334247589,1],"metallicFactor":1,"roughnessFactor":0.23600000143051147},"doubleSided":true,"name":"白色金属材质_02"}],"meshes":[{"primitives":[{"mode":4,"attributes":{"POSITION":0,"NORMAL":1,"TEXCOORD_0":2},"indices":3,"material":0}]}]}