{"asset":{"version":"2.0","generator":"THREE.GLTFExporter"},"scenes":[{"nodes":[0]}],"scene":0,"nodes":[{"matrix":[0.0010000000474974513,0,0,0,0,0.0010000000474974513,0,0,0,0,0.0010000000474974513,0,0,0,0,1],"name":"室内-吊顶音响（非）","extras":{"name":"室内-吊顶音响（非）"},"mesh":0}],"bufferViews":[{"buffer":0,"byteOffset":0,"byteLength":96,"target":34962,"byteStride":12},{"buffer":0,"byteOffset":96,"byteLength":96,"target":34962,"byteStride":12},{"buffer":0,"byteOffset":192,"byteLength":24,"target":34963}],"buffers":[{"byteLength":216,"uri":"data:application/octet-stream;base64,"}],"accessors":[{"bufferView":0,"componentType":5126,"count":8,"max":[15783.5732421875,13559.498046875,-502.6226806640625],"min":[15783.5732421875,12753.498046875,-2497.3720703125],"type":"VEC3"},{"bufferView":1,"componentType":5126,"count":8,"max":[-1,0,0],"min":[-1,0,0],"type":"VEC3"},{"bufferView":2,"componentType":5123,"count":12,"max":[7],"min":[0],"type":"SCALAR"}],"materials":[{"pbrMetallicRoughness":{"baseColorFactor":[0.11764706671237946,0.11764706671237946,0.11764706671237946,1],"metallicFactor":1,"roughnessFactor":0.858578622341156},"doubleSided":true,"name":"hei.002"}],"meshes":[{"primitives":[{"mode":4,"attributes":{"POSITION":0,"NORMAL":1},"indices":2,"material":0}]}]}