{"asset":{"version":"2.0","generator":"THREE.GLTFExporter"},"scenes":[{"nodes":[0]}],"scene":0,"nodes":[{"matrix":[0.0010000000474974513,-8.742271677698568e-11,0,0,8.742271677698568e-11,0.0010000000474974513,0,0,0,0,-0.0010000000474974513,0,0,0,0,1],"name":"上层外墙","extras":{"name":"上层外墙"},"mesh":0}],"bufferViews":[{"buffer":0,"byteOffset":0,"byteLength":102600,"target":34962,"byteStride":12},{"buffer":0,"byteOffset":102600,"byteLength":102600,"target":34962,"byteStride":12},{"buffer":0,"byteOffset":205200,"byteLength":68400,"target":34962,"byteStride":8},{"buffer":0,"byteOffset":273600,"byteLength":17100,"target":34963}],"buffers":[{"byteLength":290700,"uri":"data:application/octet-stream;base64,"}],"accessors":[{"bufferView":0,"componentType":5126,"count":8550,"max":[35509.5,19359.51171875,19850.01171875],"min":[-25591.5078125,8099.96484375,-16850.505859375],"type":"VEC3"},{"bufferView":1,"componentType":5126,"count":8550,"max":[1,1,1],"min":[-1,-1,-1],"type":"VEC3"},{"bufferView":2,"componentType":5126,"count":8550,"max":[0.9989989995956421,0.9989989995956421],"min":[0.0010010009864345193,0.0010010004043579102],"type":"VEC2"},{"bufferView":3,"componentType":5123,"count":8550,"max":[8549],"min":[0],"type":"SCALAR"}],"materials":[{"pbrMetallicRoughness":{"baseColorFactor":[0.7874122262001038,0.5319173336029053,0.2529500424861908,1],"metallicFactor":0,"roughnessFactor":0.5},"doubleSided":true,"name":"二层外墙"}],"meshes":[{"primitives":[{"mode":4,"attributes":{"POSITION":0,"NORMAL":1,"TEXCOORD_0":2},"indices":3,"material":0}]}]}