{"asset":{"version":"2.0","generator":"THREE.GLTFExporter"},"scenes":[{"nodes":[0]}],"scene":0,"nodes":[{"matrix":[-1.1920930231834637e-10,-2.980233446137121e-11,0.0010000000176951275,0,-0.0010000000176951169,-1.1920930231834637e-10,-1.4901161901614834e-10,0,1.4901161901614834e-10,-0.0010000000176951275,0,0,29.42521858215332,5.56049919128418,-1.4000004529953003,1],"name":"室内-大显示器屏幕（非）","extras":{"name":"室内-大显示器屏幕（非）"},"mesh":0}],"bufferViews":[{"buffer":0,"byteOffset":0,"byteLength":288,"target":34962,"byteStride":12},{"buffer":0,"byteOffset":288,"byteLength":288,"target":34962,"byteStride":12},{"buffer":0,"byteOffset":576,"byteLength":192,"target":34962,"byteStride":8},{"buffer":0,"byteOffset":768,"byteLength":72,"target":34963}],"buffers":[{"byteLength":840,"uri":"data:application/octet-stream;base64,"}],"accessors":[{"bufferView":0,"componentType":5126,"count":24,"max":[8000,100,4500],"min":[-8000,0,-4500],"type":"VEC3"},{"bufferView":1,"componentType":5126,"count":24,"max":[1,1,1],"min":[-1,-1,-1],"type":"VEC3"},{"bufferView":2,"componentType":5126,"count":24,"max":[0.9995005130767822,0.9995005130767822],"min":[0.0004995167255401611,0.0004994869232177734],"type":"VEC2"},{"bufferView":3,"componentType":5123,"count":36,"max":[23],"min":[0],"type":"SCALAR"}],"materials":[{"pbrMetallicRoughness":{"baseColorFactor":[0.799102783203125,0.799102783203125,0.799102783203125,1],"metallicFactor":1,"roughnessFactor":0.858578622341156},"doubleSided":true,"name":"led 2wutai"}],"meshes":[{"primitives":[{"mode":4,"attributes":{"POSITION":0,"NORMAL":1,"TEXCOORD_0":2},"indices":3,"material":0}]}]}