{
    "asset" : {
        "generator" : "Khronos glTF Blender I/O v1.3.48",
        "version" : "2.0"
    },
    "scene" : 0,
    "scenes" : [
        {
            "name" : "Scene",
            "nodes" : [
                0
            ]
        }
    ],
    "nodes" : [
        {
            "mesh" : 0,
            "name" : "\u5ba4\u5185-\u4e00\u5c42\u5899\u4f53",
            "rotation" : [
                0,
                0,
                -1,
                -4.371135631231482e-08
            ],
            "scale" : [
                -0.0010000000474974513,
                -0.0010000000474974513,
                -0.0010000000474974513
            ]
        }
    ],
    "materials" : [
        {
            "doubleSided" : true,
            "emissiveFactor" : [
                1,
                1,
                1
            ],
            "emissiveTexture" : {
                "index" : 0,
                "texCoord" : 0
            },
            "name" : "\u4e00\u697c\u5899\u58c1",
            "pbrMetallicRoughness" : {
                "baseColorFactor" : [
                    1,
                    1,
                    1,
                    1
                ],
                "metallicFactor" : 1,
                "roughnessFactor" : 1
            }
        }
    ],
    "meshes" : [
        {
            "name" : "Mesh_0",
            "primitives" : [
                {
                    "attributes" : {
                        "POSITION" : 0,
                        "NORMAL" : 1,
                        "TEXCOORD_0" : 2
                    },
                    "indices" : 3,
                    "material" : 0
                }
            ]
        }
    ],
    "textures" : [
        {
            "source" : 0
        }
    ],
    "images" : [
        {
            "mimeType" : "image/jpeg",
            "name" : "new89",
            "uri" : "new89.jpg"
        }
    ],
    "accessors" : [
        {
            "bufferView" : 0,
            "componentType" : 5126,
            "count" : 697,
            "max" : [
                31484.5078125,
                8100.00341796875,
                13800.01171875
            ],
            "min" : [
                -15640.4951171875,
                -0.005151153076440096,
                -12799.994140625
            ],
            "type" : "VEC3"
        },
        {
            "bufferView" : 1,
            "componentType" : 5126,
            "count" : 697,
            "type" : "VEC3"
        },
        {
            "bufferView" : 2,
            "componentType" : 5126,
            "count" : 697,
            "type" : "VEC2"
        },
        {
            "bufferView" : 3,
            "componentType" : 5123,
            "count" : 867,
            "type" : "SCALAR"
        }
    ],
    "bufferViews" : [
        {
            "buffer" : 0,
            "byteLength" : 8364,
            "byteOffset" : 0
        },
        {
            "buffer" : 0,
            "byteLength" : 8364,
            "byteOffset" : 8364
        },
        {
            "buffer" : 0,
            "byteLength" : 5576,
            "byteOffset" : 16728
        },
        {
            "buffer" : 0,
            "byteLength" : 1734,
            "byteOffset" : 22304
        }
    ],
    "buffers" : [
        {
            "byteLength" : 24040,
            "uri" : "new89.bin"
        }
    ]
}
