{
    "asset" : {
        "generator" : "Khronos glTF Blender I/O v1.3.48",
        "version" : "2.0"
    },
    "scene" : 0,
    "scenes" : [
        {
            "name" : "Scene",
            "nodes" : [
                0
            ]
        }
    ],
    "nodes" : [
        {
            "mesh" : 0,
            "name" : "\u5ba4\u5185-\u4e8c\u5c42\u5899\u4f53Part1",
            "rotation" : [
                0,
                0,
                -1,
                -4.3711398944878965e-08
            ],
            "scale" : [
                -0.0010000000474974513,
                -0.0010000000474974513,
                -0.0010000000474974513
            ]
        }
    ],
    "materials" : [
        {
            "doubleSided" : true,
            "emissiveFactor" : [
                1,
                1,
                1
            ],
            "emissiveTexture" : {
                "index" : 0,
                "texCoord" : 0
            },
            "name" : "\u4e8c\u697c\u5899\u58c1",
            "pbrMetallicRoughness" : {
                "baseColorFactor" : [
                    1,
                    1,
                    1,
                    1
                ],
                "metallicFactor" : 1,
                "roughnessFactor" : 1
            }
        }
    ],
    "meshes" : [
        {
            "name" : "Mesh_0",
            "primitives" : [
                {
                    "attributes" : {
                        "POSITION" : 0,
                        "NORMAL" : 1,
                        "TEXCOORD_0" : 2
                    },
                    "indices" : 3,
                    "material" : 0
                }
            ]
        }
    ],
    "textures" : [
        {
            "source" : 0
        }
    ],
    "images" : [
        {
            "mimeType" : "image/jpeg",
            "name" : "Image_0",
            "uri" : "new86.jpg"
        }
    ],
    "accessors" : [
        {
            "bufferView" : 0,
            "componentType" : 5126,
            "count" : 391,
            "max" : [
                34909,
                19359.5,
                13700.0009765625
            ],
            "min" : [
                -15040.9990234375,
                8100.0009765625,
                -10700
            ],
            "type" : "VEC3"
        },
        {
            "bufferView" : 1,
            "componentType" : 5126,
            "count" : 391,
            "type" : "VEC3"
        },
        {
            "bufferView" : 2,
            "componentType" : 5126,
            "count" : 391,
            "type" : "VEC2"
        },
        {
            "bufferView" : 3,
            "componentType" : 5123,
            "count" : 513,
            "type" : "SCALAR"
        }
    ],
    "bufferViews" : [
        {
            "buffer" : 0,
            "byteLength" : 4692,
            "byteOffset" : 0
        },
        {
            "buffer" : 0,
            "byteLength" : 4692,
            "byteOffset" : 4692
        },
        {
            "buffer" : 0,
            "byteLength" : 3128,
            "byteOffset" : 9384
        },
        {
            "buffer" : 0,
            "byteLength" : 1026,
            "byteOffset" : 12512
        }
    ],
    "buffers" : [
        {
            "byteLength" : 13540,
            "uri" : "new86.bin"
        }
    ]
}
