{"asset":{"version":"2.0","generator":"THREE.GLTFExporter"},"scenes":[{"nodes":[0]}],"scene":0,"nodes":[{"matrix":[-0.0007999999797903001,0,1.2079663897088946e-10,0,0,0.0007999999797903001,0,0,-1.2079663897088946e-10,0,-0.0007999999797903001,0,14.496395111083984,3.3109779357910156,7.633774757385254,1],"name":"室内-小显示器屏幕（非）","extras":{"name":"室内-小显示器屏幕（非）"},"mesh":0}],"bufferViews":[{"buffer":0,"byteOffset":0,"byteLength":576,"target":34962,"byteStride":12},{"buffer":0,"byteOffset":576,"byteLength":576,"target":34962,"byteStride":12},{"buffer":0,"byteOffset":1152,"byteLength":384,"target":34962,"byteStride":8},{"buffer":0,"byteOffset":1536,"byteLength":144,"target":34963}],"buffers":[{"byteLength":1680,"uri":"data:application/octet-stream;base64,"}],"accessors":[{"bufferView":0,"componentType":5126,"count":48,"max":[1244.1478271484375,2475,24159.17578125],"min":[-1323.7987060546875,0,-1306.4136962890625],"type":"VEC3"},{"bufferView":1,"componentType":5126,"count":48,"max":[0.7071480751037598,1,0.7072689533233643],"min":[-0.7073450684547424,-1,-0.7073362469673157],"type":"VEC3"},{"bufferView":2,"componentType":5126,"count":48,"max":[0.9995005130767822,0.9995004534721375],"min":[0.0004995167255401611,0.0004995465278625488],"type":"VEC2"},{"bufferView":3,"componentType":5123,"count":72,"max":[47],"min":[0],"type":"SCALAR"}],"materials":[{"pbrMetallicRoughness":{"baseColorFactor":[0.799102783203125,0.799102783203125,0.799102783203125,1],"metallicFactor":1,"roughnessFactor":0.858578622341156},"doubleSided":true,"name":"led 2wutai"}],"meshes":[{"primitives":[{"mode":4,"attributes":{"POSITION":0,"NORMAL":1,"TEXCOORD_0":2},"indices":3,"material":0}]}]}