{"asset":{"version":"2.0","generator":"THREE.GLTFExporter"},"scenes":[{"nodes":[0]}],"scene":0,"nodes":[{"matrix":[-3.576279495876053e-10,8.940691811898129e-11,0.0010000000176951063,0,-0.0010000000176950742,-2.384186614801143e-10,-3.8743019167841646e-10,0,2.6822089291278393e-10,-0.0010000000176951453,1.1920928810749098e-10,0,29.42521858215332,5.56049919128418,-1.4000004529953003,1],"name":"室内-显示器边框（非）","extras":{"name":"室内-显示器边框（非）"},"mesh":0}],"bufferViews":[{"buffer":0,"byteOffset":0,"byteLength":2880,"target":34962,"byteStride":12},{"buffer":0,"byteOffset":2880,"byteLength":2880,"target":34962,"byteStride":12},{"buffer":0,"byteOffset":5760,"byteLength":960,"target":34963}],"buffers":[{"byteLength":6720,"uri":"data:application/octet-stream;base64,"}],"accessors":[{"bufferView":0,"componentType":5126,"count":240,"max":[10209.9375,16070.10546875,4700],"min":[-10410.6787109375,0,-4700],"type":"VEC3"},{"bufferView":1,"componentType":5126,"count":240,"max":[1,1,1],"min":[-1,-1,-1],"type":"VEC3"},{"bufferView":2,"componentType":5123,"count":480,"max":[239],"min":[0],"type":"SCALAR"}],"materials":[{"pbrMetallicRoughness":{"baseColorFactor":[0.005177759565412998,0.005177759565412998,0.005177759565412998,1],"metallicFactor":1,"roughnessFactor":0.6179999709129333},"doubleSided":true,"name":"黑色金属材质_01"}],"meshes":[{"primitives":[{"mode":4,"attributes":{"POSITION":0,"NORMAL":1},"indices":2,"material":0}]}]}