{"asset":{"version":"2.0","generator":"THREE.GLTFExporter"},"scenes":[{"nodes":[0]}],"scene":0,"nodes":[{"name":"网格.023_1","mesh":0}],"bufferViews":[{"buffer":0,"byteOffset":0,"byteLength":240,"target":34962,"byteStride":12},{"buffer":0,"byteOffset":240,"byteLength":240,"target":34962,"byteStride":12},{"buffer":0,"byteOffset":480,"byteLength":160,"target":34962,"byteStride":8},{"buffer":0,"byteOffset":640,"byteLength":60,"target":34963}],"buffers":[{"byteLength":700,"uri":"data:application/octet-stream;base64,"}],"accessors":[{"bufferView":0,"componentType":5126,"count":20,"max":[-129.377197265625,30,2232.154296875],"min":[-759.7020263671875,20,102.122314453125],"type":"VEC3"},{"bufferView":1,"componentType":5126,"count":20,"max":[0.35992252826690674,1,0.4390982687473297],"min":[-0.3599209785461426,0.8984385132789612,-0.43909934163093567],"type":"VEC3"},{"bufferView":2,"componentType":5126,"count":20,"max":[0,1],"min":[0,1],"type":"VEC2"},{"bufferView":3,"componentType":5123,"count":30,"max":[19],"min":[0],"type":"SCALAR"}],"materials":[{"pbrMetallicRoughness":{"baseColorFactor":[1,1,1,0.15686261653900146],"metallicFactor":0.20000000298023224,"roughnessFactor":0},"emissiveFactor":[0.09593869000673294,0.09593869000673294,0.09593869000673294],"doubleSided":true,"name":"玻璃材质_01"}],"meshes":[{"primitives":[{"mode":4,"attributes":{"POSITION":0,"NORMAL":1,"TEXCOORD_0":2},"indices":3,"material":0}]}]}