{"asset":{"version":"2.0","generator":"THREE.GLTFExporter"},"scenes":[{"nodes":[0]}],"scene":0,"nodes":[{"name":"网格.034_2","mesh":0}],"bufferViews":[{"buffer":0,"byteOffset":0,"byteLength":1728,"target":34962,"byteStride":12},{"buffer":0,"byteOffset":1728,"byteLength":1728,"target":34962,"byteStride":12},{"buffer":0,"byteOffset":3456,"byteLength":1152,"target":34962,"byteStride":8},{"buffer":0,"byteOffset":4608,"byteLength":792,"target":34963}],"buffers":[{"byteLength":5400,"uri":"data:application/octet-stream;base64,"}],"accessors":[{"bufferView":0,"componentType":5126,"count":144,"max":[173.7138671875,829.7169189453125,1820.2099609375],"min":[0.60546875,779.2584228515625,760.7412109375],"type":"VEC3"},{"bufferView":1,"componentType":5126,"count":144,"max":[1,1,1],"min":[-1,-1,-1],"type":"VEC3"},{"bufferView":2,"componentType":5126,"count":144,"max":[0,1],"min":[0,1],"type":"VEC2"},{"bufferView":3,"componentType":5123,"count":396,"max":[143],"min":[0],"type":"SCALAR"}],"materials":[{"pbrMetallicRoughness":{"baseColorFactor":[0.5568627715110779,0.686274528503418,0.7882353663444519,1],"metallicFactor":1,"roughnessFactor":0.38199999928474426},"emissiveFactor":[0.5583405494689941,0.6866853833198547,0.7912980914115906],"doubleSided":true,"name":"白色金属材质_01"}],"meshes":[{"primitives":[{"mode":4,"attributes":{"POSITION":0,"NORMAL":1,"TEXCOORD_0":2},"indices":3,"material":0}]}]}