{"asset":{"version":"2.0","generator":"THREE.GLTFExporter"},"scenes":[{"nodes":[0]}],"scene":0,"nodes":[{"name":"网格.034_1","mesh":0}],"bufferViews":[{"buffer":0,"byteOffset":0,"byteLength":240,"target":34962,"byteStride":12},{"buffer":0,"byteOffset":240,"byteLength":240,"target":34962,"byteStride":12},{"buffer":0,"byteOffset":480,"byteLength":160,"target":34962,"byteStride":8},{"buffer":0,"byteOffset":640,"byteLength":60,"target":34963}],"buffers":[{"byteLength":700,"uri":"data:application/octet-stream;base64,"}],"accessors":[{"bufferView":0,"componentType":5126,"count":20,"max":[30,766.664794921875,2496.7177734375],"min":[19.9990234375,130.56277465820312,114.22607421875],"type":"VEC3"},{"bufferView":1,"componentType":5126,"count":20,"max":[1,0.3570723831653595,0.4003983438014984],"min":[0.9163411259651184,-0.35707220435142517,-0.400398313999176],"type":"VEC3"},{"bufferView":2,"componentType":5126,"count":20,"max":[0,1],"min":[0,1],"type":"VEC2"},{"bufferView":3,"componentType":5123,"count":30,"max":[19],"min":[0],"type":"SCALAR"}],"materials":[{"pbrMetallicRoughness":{"baseColorFactor":[1,1,1,0.15686261653900146],"metallicFactor":0.20000000298023224,"roughnessFactor":0},"emissiveFactor":[0.09593869000673294,0.09593869000673294,0.09593869000673294],"doubleSided":true,"name":"玻璃材质_01"}],"meshes":[{"primitives":[{"mode":4,"attributes":{"POSITION":0,"NORMAL":1,"TEXCOORD_0":2},"indices":3,"material":0}]}]}